<mxfile host="65bd71144e">
    <diagram id="JEI3bzSz7vMMKWjOlqEP" name="Page-1">
        <mxGraphModel dx="398" dy="314" grid="1" gridSize="10" guides="1" tooltips="1" connect="1" arrows="1" fold="1" page="1" pageScale="1" pageWidth="827" pageHeight="1169" math="0" shadow="0">
            <root>
                <mxCell id="0"/>
                <mxCell id="1" parent="0"/>
                <mxCell id="2" value="" style="endArrow=none;html=1;" parent="1" edge="1">
                    <mxGeometry width="50" height="50" relative="1" as="geometry">
                        <mxPoint x="110" y="30" as="sourcePoint"/>
                        <mxPoint x="550" y="30" as="targetPoint"/>
                    </mxGeometry>
                </mxCell>
                <mxCell id="3" value="1" style="text;html=1;strokeColor=none;fillColor=none;align=center;verticalAlign=middle;whiteSpace=wrap;rounded=0;" parent="1" vertex="1">
                    <mxGeometry x="80" y="40" width="60" height="30" as="geometry"/>
                </mxCell>
                <mxCell id="4" value="" style="endArrow=none;html=1;" parent="1" edge="1">
                    <mxGeometry width="50" height="50" relative="1" as="geometry">
                        <mxPoint x="110" y="40" as="sourcePoint"/>
                        <mxPoint x="110" y="20" as="targetPoint"/>
                    </mxGeometry>
                </mxCell>
                <mxCell id="5" value="2" style="text;html=1;strokeColor=none;fillColor=none;align=center;verticalAlign=middle;whiteSpace=wrap;rounded=0;" parent="1" vertex="1">
                    <mxGeometry x="120" y="40" width="60" height="30" as="geometry"/>
                </mxCell>
                <mxCell id="6" value="" style="endArrow=none;html=1;" parent="1" edge="1">
                    <mxGeometry width="50" height="50" relative="1" as="geometry">
                        <mxPoint x="150" y="40" as="sourcePoint"/>
                        <mxPoint x="150" y="20" as="targetPoint"/>
                    </mxGeometry>
                </mxCell>
                <mxCell id="7" value="3" style="text;html=1;strokeColor=none;fillColor=none;align=center;verticalAlign=middle;whiteSpace=wrap;rounded=0;" parent="1" vertex="1">
                    <mxGeometry x="160" y="40" width="60" height="30" as="geometry"/>
                </mxCell>
                <mxCell id="8" value="" style="endArrow=none;html=1;" parent="1" edge="1">
                    <mxGeometry width="50" height="50" relative="1" as="geometry">
                        <mxPoint x="190" y="40" as="sourcePoint"/>
                        <mxPoint x="190" y="20" as="targetPoint"/>
                    </mxGeometry>
                </mxCell>
                <mxCell id="9" value="4" style="text;html=1;strokeColor=none;fillColor=none;align=center;verticalAlign=middle;whiteSpace=wrap;rounded=0;" parent="1" vertex="1">
                    <mxGeometry x="200" y="40" width="60" height="30" as="geometry"/>
                </mxCell>
                <mxCell id="10" value="" style="endArrow=none;html=1;" parent="1" edge="1">
                    <mxGeometry width="50" height="50" relative="1" as="geometry">
                        <mxPoint x="230" y="40" as="sourcePoint"/>
                        <mxPoint x="230" y="20" as="targetPoint"/>
                    </mxGeometry>
                </mxCell>
                <mxCell id="11" value="5" style="text;html=1;strokeColor=none;fillColor=none;align=center;verticalAlign=middle;whiteSpace=wrap;rounded=0;" parent="1" vertex="1">
                    <mxGeometry x="240" y="40" width="60" height="30" as="geometry"/>
                </mxCell>
                <mxCell id="12" value="" style="endArrow=none;html=1;" parent="1" edge="1">
                    <mxGeometry width="50" height="50" relative="1" as="geometry">
                        <mxPoint x="270" y="40" as="sourcePoint"/>
                        <mxPoint x="270" y="20" as="targetPoint"/>
                    </mxGeometry>
                </mxCell>
                <mxCell id="13" value="6" style="text;html=1;strokeColor=none;fillColor=none;align=center;verticalAlign=middle;whiteSpace=wrap;rounded=0;" parent="1" vertex="1">
                    <mxGeometry x="290" y="40" width="40" height="30" as="geometry"/>
                </mxCell>
                <mxCell id="14" value="" style="endArrow=none;html=1;" parent="1" edge="1">
                    <mxGeometry width="50" height="50" relative="1" as="geometry">
                        <mxPoint x="310" y="40" as="sourcePoint"/>
                        <mxPoint x="310" y="20" as="targetPoint"/>
                    </mxGeometry>
                </mxCell>
                <mxCell id="15" value="7" style="text;html=1;strokeColor=none;fillColor=none;align=center;verticalAlign=middle;whiteSpace=wrap;rounded=0;" parent="1" vertex="1">
                    <mxGeometry x="320" y="40" width="60" height="30" as="geometry"/>
                </mxCell>
                <mxCell id="16" value="" style="endArrow=none;html=1;" parent="1" edge="1">
                    <mxGeometry width="50" height="50" relative="1" as="geometry">
                        <mxPoint x="350" y="40" as="sourcePoint"/>
                        <mxPoint x="350" y="20" as="targetPoint"/>
                    </mxGeometry>
                </mxCell>
                <mxCell id="17" value="8" style="text;html=1;strokeColor=none;fillColor=none;align=center;verticalAlign=middle;whiteSpace=wrap;rounded=0;" parent="1" vertex="1">
                    <mxGeometry x="360" y="40" width="60" height="30" as="geometry"/>
                </mxCell>
                <mxCell id="18" value="" style="endArrow=none;html=1;" parent="1" edge="1">
                    <mxGeometry width="50" height="50" relative="1" as="geometry">
                        <mxPoint x="390" y="40" as="sourcePoint"/>
                        <mxPoint x="390" y="20" as="targetPoint"/>
                    </mxGeometry>
                </mxCell>
                <mxCell id="19" value="9" style="text;html=1;strokeColor=none;fillColor=none;align=center;verticalAlign=middle;whiteSpace=wrap;rounded=0;" parent="1" vertex="1">
                    <mxGeometry x="400" y="40" width="60" height="30" as="geometry"/>
                </mxCell>
                <mxCell id="20" value="" style="endArrow=none;html=1;" parent="1" edge="1">
                    <mxGeometry width="50" height="50" relative="1" as="geometry">
                        <mxPoint x="430" y="40" as="sourcePoint"/>
                        <mxPoint x="430" y="20" as="targetPoint"/>
                    </mxGeometry>
                </mxCell>
                <mxCell id="21" value="10" style="text;html=1;strokeColor=none;fillColor=none;align=center;verticalAlign=middle;whiteSpace=wrap;rounded=0;" parent="1" vertex="1">
                    <mxGeometry x="440" y="40" width="60" height="30" as="geometry"/>
                </mxCell>
                <mxCell id="22" value="" style="endArrow=none;html=1;" parent="1" edge="1">
                    <mxGeometry width="50" height="50" relative="1" as="geometry">
                        <mxPoint x="470" y="40" as="sourcePoint"/>
                        <mxPoint x="470" y="20" as="targetPoint"/>
                    </mxGeometry>
                </mxCell>
                <mxCell id="23" value="11" style="text;html=1;strokeColor=none;fillColor=none;align=center;verticalAlign=middle;whiteSpace=wrap;rounded=0;" parent="1" vertex="1">
                    <mxGeometry x="480" y="40" width="60" height="30" as="geometry"/>
                </mxCell>
                <mxCell id="24" value="" style="endArrow=none;html=1;" parent="1" edge="1">
                    <mxGeometry width="50" height="50" relative="1" as="geometry">
                        <mxPoint x="510" y="40" as="sourcePoint"/>
                        <mxPoint x="510" y="20" as="targetPoint"/>
                    </mxGeometry>
                </mxCell>
                <mxCell id="25" value="12" style="text;html=1;strokeColor=none;fillColor=none;align=center;verticalAlign=middle;whiteSpace=wrap;rounded=0;" parent="1" vertex="1">
                    <mxGeometry x="530" y="40" width="40" height="30" as="geometry"/>
                </mxCell>
                <mxCell id="26" value="" style="endArrow=none;html=1;" parent="1" edge="1">
                    <mxGeometry width="50" height="50" relative="1" as="geometry">
                        <mxPoint x="550" y="40" as="sourcePoint"/>
                        <mxPoint x="550" y="20" as="targetPoint"/>
                    </mxGeometry>
                </mxCell>
                <mxCell id="27" value="" style="endArrow=none;html=1;" parent="1" edge="1">
                    <mxGeometry width="50" height="50" relative="1" as="geometry">
                        <mxPoint x="119" y="320" as="sourcePoint"/>
                        <mxPoint x="559" y="320" as="targetPoint"/>
                    </mxGeometry>
                </mxCell>
                <mxCell id="28" value="1" style="text;html=1;strokeColor=none;fillColor=none;align=center;verticalAlign=middle;whiteSpace=wrap;rounded=0;" parent="1" vertex="1">
                    <mxGeometry x="89" y="330" width="60" height="30" as="geometry"/>
                </mxCell>
                <mxCell id="29" value="" style="endArrow=none;html=1;" parent="1" edge="1">
                    <mxGeometry width="50" height="50" relative="1" as="geometry">
                        <mxPoint x="119" y="330" as="sourcePoint"/>
                        <mxPoint x="119" y="310" as="targetPoint"/>
                    </mxGeometry>
                </mxCell>
                <mxCell id="30" value="2" style="text;html=1;strokeColor=none;fillColor=none;align=center;verticalAlign=middle;whiteSpace=wrap;rounded=0;" parent="1" vertex="1">
                    <mxGeometry x="129" y="330" width="60" height="30" as="geometry"/>
                </mxCell>
                <mxCell id="31" value="" style="endArrow=none;html=1;" parent="1" edge="1">
                    <mxGeometry width="50" height="50" relative="1" as="geometry">
                        <mxPoint x="159" y="330" as="sourcePoint"/>
                        <mxPoint x="159" y="310" as="targetPoint"/>
                    </mxGeometry>
                </mxCell>
                <mxCell id="32" value="3" style="text;html=1;strokeColor=none;fillColor=none;align=center;verticalAlign=middle;whiteSpace=wrap;rounded=0;" parent="1" vertex="1">
                    <mxGeometry x="169" y="330" width="60" height="30" as="geometry"/>
                </mxCell>
                <mxCell id="33" value="" style="endArrow=none;html=1;" parent="1" edge="1">
                    <mxGeometry width="50" height="50" relative="1" as="geometry">
                        <mxPoint x="199" y="330" as="sourcePoint"/>
                        <mxPoint x="199" y="310" as="targetPoint"/>
                    </mxGeometry>
                </mxCell>
                <mxCell id="34" value="4" style="text;html=1;strokeColor=none;fillColor=none;align=center;verticalAlign=middle;whiteSpace=wrap;rounded=0;" parent="1" vertex="1">
                    <mxGeometry x="209" y="330" width="60" height="30" as="geometry"/>
                </mxCell>
                <mxCell id="35" value="" style="endArrow=none;html=1;" parent="1" edge="1">
                    <mxGeometry width="50" height="50" relative="1" as="geometry">
                        <mxPoint x="239" y="330" as="sourcePoint"/>
                        <mxPoint x="239" y="310" as="targetPoint"/>
                    </mxGeometry>
                </mxCell>
                <mxCell id="36" value="5" style="text;html=1;strokeColor=none;fillColor=none;align=center;verticalAlign=middle;whiteSpace=wrap;rounded=0;" parent="1" vertex="1">
                    <mxGeometry x="249" y="330" width="60" height="30" as="geometry"/>
                </mxCell>
                <mxCell id="37" value="" style="endArrow=none;html=1;" parent="1" edge="1">
                    <mxGeometry width="50" height="50" relative="1" as="geometry">
                        <mxPoint x="279" y="330" as="sourcePoint"/>
                        <mxPoint x="279" y="310" as="targetPoint"/>
                    </mxGeometry>
                </mxCell>
                <mxCell id="38" value="6" style="text;html=1;strokeColor=none;fillColor=none;align=center;verticalAlign=middle;whiteSpace=wrap;rounded=0;" parent="1" vertex="1">
                    <mxGeometry x="299" y="330" width="40" height="30" as="geometry"/>
                </mxCell>
                <mxCell id="39" value="" style="endArrow=none;html=1;" parent="1" edge="1">
                    <mxGeometry width="50" height="50" relative="1" as="geometry">
                        <mxPoint x="319" y="330" as="sourcePoint"/>
                        <mxPoint x="319" y="310" as="targetPoint"/>
                    </mxGeometry>
                </mxCell>
                <mxCell id="40" value="7" style="text;html=1;strokeColor=none;fillColor=none;align=center;verticalAlign=middle;whiteSpace=wrap;rounded=0;" parent="1" vertex="1">
                    <mxGeometry x="329" y="330" width="60" height="30" as="geometry"/>
                </mxCell>
                <mxCell id="41" value="" style="endArrow=none;html=1;" parent="1" edge="1">
                    <mxGeometry width="50" height="50" relative="1" as="geometry">
                        <mxPoint x="359" y="330" as="sourcePoint"/>
                        <mxPoint x="359" y="310" as="targetPoint"/>
                    </mxGeometry>
                </mxCell>
                <mxCell id="42" value="8" style="text;html=1;strokeColor=none;fillColor=none;align=center;verticalAlign=middle;whiteSpace=wrap;rounded=0;" parent="1" vertex="1">
                    <mxGeometry x="369" y="330" width="60" height="30" as="geometry"/>
                </mxCell>
                <mxCell id="43" value="" style="endArrow=none;html=1;" parent="1" edge="1">
                    <mxGeometry width="50" height="50" relative="1" as="geometry">
                        <mxPoint x="399" y="330" as="sourcePoint"/>
                        <mxPoint x="399" y="310" as="targetPoint"/>
                    </mxGeometry>
                </mxCell>
                <mxCell id="44" value="9" style="text;html=1;strokeColor=none;fillColor=none;align=center;verticalAlign=middle;whiteSpace=wrap;rounded=0;" parent="1" vertex="1">
                    <mxGeometry x="409" y="330" width="60" height="30" as="geometry"/>
                </mxCell>
                <mxCell id="45" value="" style="endArrow=none;html=1;" parent="1" edge="1">
                    <mxGeometry width="50" height="50" relative="1" as="geometry">
                        <mxPoint x="439" y="330" as="sourcePoint"/>
                        <mxPoint x="439" y="310" as="targetPoint"/>
                    </mxGeometry>
                </mxCell>
                <mxCell id="46" value="10" style="text;html=1;strokeColor=none;fillColor=none;align=center;verticalAlign=middle;whiteSpace=wrap;rounded=0;" parent="1" vertex="1">
                    <mxGeometry x="449" y="330" width="60" height="30" as="geometry"/>
                </mxCell>
                <mxCell id="47" value="" style="endArrow=none;html=1;" parent="1" edge="1">
                    <mxGeometry width="50" height="50" relative="1" as="geometry">
                        <mxPoint x="479" y="330" as="sourcePoint"/>
                        <mxPoint x="479" y="310" as="targetPoint"/>
                    </mxGeometry>
                </mxCell>
                <mxCell id="48" value="11" style="text;html=1;strokeColor=none;fillColor=none;align=center;verticalAlign=middle;whiteSpace=wrap;rounded=0;" parent="1" vertex="1">
                    <mxGeometry x="489" y="330" width="60" height="30" as="geometry"/>
                </mxCell>
                <mxCell id="49" value="" style="endArrow=none;html=1;" parent="1" edge="1">
                    <mxGeometry width="50" height="50" relative="1" as="geometry">
                        <mxPoint x="519" y="330" as="sourcePoint"/>
                        <mxPoint x="519" y="310" as="targetPoint"/>
                    </mxGeometry>
                </mxCell>
                <mxCell id="50" value="12" style="text;html=1;strokeColor=none;fillColor=none;align=center;verticalAlign=middle;whiteSpace=wrap;rounded=0;" parent="1" vertex="1">
                    <mxGeometry x="539" y="330" width="40" height="30" as="geometry"/>
                </mxCell>
                <mxCell id="51" value="" style="endArrow=none;html=1;" parent="1" edge="1">
                    <mxGeometry width="50" height="50" relative="1" as="geometry">
                        <mxPoint x="559" y="330" as="sourcePoint"/>
                        <mxPoint x="559" y="310" as="targetPoint"/>
                    </mxGeometry>
                </mxCell>
                <mxCell id="52" value="" style="endArrow=none;html=1;strokeWidth=4;fillColor=#dae8fc;strokeColor=#3414FF;" parent="1" edge="1">
                    <mxGeometry width="50" height="50" relative="1" as="geometry">
                        <mxPoint x="239" y="230" as="sourcePoint"/>
                        <mxPoint x="319" y="230" as="targetPoint"/>
                    </mxGeometry>
                </mxCell>
                <mxCell id="53" value="" style="endArrow=none;html=1;strokeWidth=4;fillColor=#dae8fc;strokeColor=#3414FF;" parent="1" edge="1">
                    <mxGeometry width="50" height="50" relative="1" as="geometry">
                        <mxPoint x="359" y="160" as="sourcePoint"/>
                        <mxPoint x="480" y="160" as="targetPoint"/>
                    </mxGeometry>
                </mxCell>
                <mxCell id="54" value="" style="endArrow=none;html=1;strokeWidth=4;fillColor=#dae8fc;strokeColor=#FF3333;" parent="1" edge="1">
                    <mxGeometry width="50" height="50" relative="1" as="geometry">
                        <mxPoint x="119" y="290" as="sourcePoint"/>
                        <mxPoint x="240" y="290" as="targetPoint"/>
                    </mxGeometry>
                </mxCell>
                <mxCell id="55" value="New" style="text;html=1;strokeColor=none;fillColor=none;align=center;verticalAlign=middle;whiteSpace=wrap;rounded=0;" parent="1" vertex="1">
                    <mxGeometry x="89" y="220" width="60" height="30" as="geometry"/>
                </mxCell>
                <mxCell id="56" value="Final" style="text;html=1;strokeColor=none;fillColor=none;align=center;verticalAlign=middle;whiteSpace=wrap;rounded=0;" parent="1" vertex="1">
                    <mxGeometry x="120" y="400" width="60" height="30" as="geometry"/>
                </mxCell>
                <mxCell id="57" value="" style="endArrow=none;html=1;strokeWidth=4;fillColor=#dae8fc;strokeColor=#FF3333;" parent="1" edge="1">
                    <mxGeometry width="50" height="50" relative="1" as="geometry">
                        <mxPoint x="199" y="414.5" as="sourcePoint"/>
                        <mxPoint x="320" y="414.5" as="targetPoint"/>
                    </mxGeometry>
                </mxCell>
                <mxCell id="58" value="" style="endArrow=none;html=1;strokeWidth=4;fillColor=#dae8fc;strokeColor=#3414FF;" parent="1" edge="1">
                    <mxGeometry width="50" height="50" relative="1" as="geometry">
                        <mxPoint x="329" y="414.5" as="sourcePoint"/>
                        <mxPoint x="409" y="414.5" as="targetPoint"/>
                    </mxGeometry>
                </mxCell>
                <mxCell id="59" value="" style="endArrow=none;html=1;strokeWidth=4;fillColor=#dae8fc;strokeColor=#3414FF;" parent="1" edge="1">
                    <mxGeometry width="50" height="50" relative="1" as="geometry">
                        <mxPoint x="418" y="414.5" as="sourcePoint"/>
                        <mxPoint x="539" y="414.5" as="targetPoint"/>
                    </mxGeometry>
                </mxCell>
                <mxCell id="60" value="1" style="text;html=1;strokeColor=#d6b656;fillColor=#fff2cc;align=center;verticalAlign=middle;whiteSpace=wrap;rounded=0;" parent="1" vertex="1">
                    <mxGeometry x="112" y="256" width="20" height="30" as="geometry"/>
                </mxCell>
                <mxCell id="61" value="4" style="text;html=1;strokeColor=#d6b656;fillColor=#fff2cc;align=center;verticalAlign=middle;whiteSpace=wrap;rounded=0;" parent="1" vertex="1">
                    <mxGeometry x="220" y="253" width="20" height="30" as="geometry"/>
                </mxCell>
                <mxCell id="62" value="4" style="text;html=1;strokeColor=#d6b656;fillColor=#fff2cc;align=center;verticalAlign=middle;whiteSpace=wrap;rounded=0;" parent="1" vertex="1">
                    <mxGeometry x="230" y="190" width="20" height="30" as="geometry"/>
                </mxCell>
                <mxCell id="63" value="6" style="text;html=1;strokeColor=#d6b656;fillColor=#fff2cc;align=center;verticalAlign=middle;whiteSpace=wrap;rounded=0;" parent="1" vertex="1">
                    <mxGeometry x="309" y="190" width="20" height="30" as="geometry"/>
                </mxCell>
                <mxCell id="64" value="7" style="text;html=1;strokeColor=#d6b656;fillColor=#fff2cc;align=center;verticalAlign=middle;whiteSpace=wrap;rounded=0;" parent="1" vertex="1">
                    <mxGeometry x="349" y="120" width="20" height="30" as="geometry"/>
                </mxCell>
                <mxCell id="65" value="10" style="text;html=1;strokeColor=#d6b656;fillColor=#fff2cc;align=center;verticalAlign=middle;whiteSpace=wrap;rounded=0;" parent="1" vertex="1">
                    <mxGeometry x="469" y="120" width="20" height="30" as="geometry"/>
                </mxCell>
                <mxCell id="66" value="" style="endArrow=none;html=1;" parent="1" edge="1">
                    <mxGeometry width="50" height="50" relative="1" as="geometry">
                        <mxPoint x="129" y="710" as="sourcePoint"/>
                        <mxPoint x="569" y="710" as="targetPoint"/>
                    </mxGeometry>
                </mxCell>
                <mxCell id="67" value="1" style="text;html=1;strokeColor=none;fillColor=none;align=center;verticalAlign=middle;whiteSpace=wrap;rounded=0;" parent="1" vertex="1">
                    <mxGeometry x="99" y="720" width="60" height="30" as="geometry"/>
                </mxCell>
                <mxCell id="68" value="" style="endArrow=none;html=1;" parent="1" edge="1">
                    <mxGeometry width="50" height="50" relative="1" as="geometry">
                        <mxPoint x="129" y="720" as="sourcePoint"/>
                        <mxPoint x="129" y="700" as="targetPoint"/>
                    </mxGeometry>
                </mxCell>
                <mxCell id="69" value="2" style="text;html=1;strokeColor=none;fillColor=none;align=center;verticalAlign=middle;whiteSpace=wrap;rounded=0;" parent="1" vertex="1">
                    <mxGeometry x="139" y="720" width="60" height="30" as="geometry"/>
                </mxCell>
                <mxCell id="70" value="" style="endArrow=none;html=1;" parent="1" edge="1">
                    <mxGeometry width="50" height="50" relative="1" as="geometry">
                        <mxPoint x="169" y="720" as="sourcePoint"/>
                        <mxPoint x="169" y="700" as="targetPoint"/>
                    </mxGeometry>
                </mxCell>
                <mxCell id="71" value="3" style="text;html=1;strokeColor=none;fillColor=none;align=center;verticalAlign=middle;whiteSpace=wrap;rounded=0;" parent="1" vertex="1">
                    <mxGeometry x="179" y="720" width="60" height="30" as="geometry"/>
                </mxCell>
                <mxCell id="72" value="" style="endArrow=none;html=1;" parent="1" edge="1">
                    <mxGeometry width="50" height="50" relative="1" as="geometry">
                        <mxPoint x="209" y="720" as="sourcePoint"/>
                        <mxPoint x="209" y="700" as="targetPoint"/>
                    </mxGeometry>
                </mxCell>
                <mxCell id="73" value="4" style="text;html=1;strokeColor=none;fillColor=none;align=center;verticalAlign=middle;whiteSpace=wrap;rounded=0;" parent="1" vertex="1">
                    <mxGeometry x="219" y="720" width="60" height="30" as="geometry"/>
                </mxCell>
                <mxCell id="74" value="" style="endArrow=none;html=1;" parent="1" edge="1">
                    <mxGeometry width="50" height="50" relative="1" as="geometry">
                        <mxPoint x="249" y="720" as="sourcePoint"/>
                        <mxPoint x="249" y="700" as="targetPoint"/>
                    </mxGeometry>
                </mxCell>
                <mxCell id="75" value="5" style="text;html=1;strokeColor=none;fillColor=none;align=center;verticalAlign=middle;whiteSpace=wrap;rounded=0;" parent="1" vertex="1">
                    <mxGeometry x="259" y="720" width="60" height="30" as="geometry"/>
                </mxCell>
                <mxCell id="76" value="" style="endArrow=none;html=1;" parent="1" edge="1">
                    <mxGeometry width="50" height="50" relative="1" as="geometry">
                        <mxPoint x="289" y="720" as="sourcePoint"/>
                        <mxPoint x="289" y="700" as="targetPoint"/>
                    </mxGeometry>
                </mxCell>
                <mxCell id="77" value="6" style="text;html=1;strokeColor=none;fillColor=none;align=center;verticalAlign=middle;whiteSpace=wrap;rounded=0;" parent="1" vertex="1">
                    <mxGeometry x="309" y="720" width="40" height="30" as="geometry"/>
                </mxCell>
                <mxCell id="78" value="" style="endArrow=none;html=1;" parent="1" edge="1">
                    <mxGeometry width="50" height="50" relative="1" as="geometry">
                        <mxPoint x="329" y="720" as="sourcePoint"/>
                        <mxPoint x="329" y="700" as="targetPoint"/>
                    </mxGeometry>
                </mxCell>
                <mxCell id="79" value="7" style="text;html=1;strokeColor=none;fillColor=none;align=center;verticalAlign=middle;whiteSpace=wrap;rounded=0;" parent="1" vertex="1">
                    <mxGeometry x="339" y="720" width="60" height="30" as="geometry"/>
                </mxCell>
                <mxCell id="80" value="" style="endArrow=none;html=1;" parent="1" edge="1">
                    <mxGeometry width="50" height="50" relative="1" as="geometry">
                        <mxPoint x="369" y="720" as="sourcePoint"/>
                        <mxPoint x="369" y="700" as="targetPoint"/>
                    </mxGeometry>
                </mxCell>
                <mxCell id="81" value="8" style="text;html=1;strokeColor=none;fillColor=none;align=center;verticalAlign=middle;whiteSpace=wrap;rounded=0;" parent="1" vertex="1">
                    <mxGeometry x="379" y="720" width="60" height="30" as="geometry"/>
                </mxCell>
                <mxCell id="82" value="" style="endArrow=none;html=1;" parent="1" edge="1">
                    <mxGeometry width="50" height="50" relative="1" as="geometry">
                        <mxPoint x="409" y="720" as="sourcePoint"/>
                        <mxPoint x="409" y="700" as="targetPoint"/>
                    </mxGeometry>
                </mxCell>
                <mxCell id="83" value="9" style="text;html=1;strokeColor=none;fillColor=none;align=center;verticalAlign=middle;whiteSpace=wrap;rounded=0;" parent="1" vertex="1">
                    <mxGeometry x="419" y="720" width="60" height="30" as="geometry"/>
                </mxCell>
                <mxCell id="84" value="" style="endArrow=none;html=1;" parent="1" edge="1">
                    <mxGeometry width="50" height="50" relative="1" as="geometry">
                        <mxPoint x="449" y="720" as="sourcePoint"/>
                        <mxPoint x="449" y="700" as="targetPoint"/>
                    </mxGeometry>
                </mxCell>
                <mxCell id="85" value="10" style="text;html=1;strokeColor=none;fillColor=none;align=center;verticalAlign=middle;whiteSpace=wrap;rounded=0;" parent="1" vertex="1">
                    <mxGeometry x="459" y="720" width="60" height="30" as="geometry"/>
                </mxCell>
                <mxCell id="86" value="" style="endArrow=none;html=1;" parent="1" edge="1">
                    <mxGeometry width="50" height="50" relative="1" as="geometry">
                        <mxPoint x="489" y="720" as="sourcePoint"/>
                        <mxPoint x="489" y="700" as="targetPoint"/>
                    </mxGeometry>
                </mxCell>
                <mxCell id="87" value="11" style="text;html=1;strokeColor=none;fillColor=none;align=center;verticalAlign=middle;whiteSpace=wrap;rounded=0;" parent="1" vertex="1">
                    <mxGeometry x="499" y="720" width="60" height="30" as="geometry"/>
                </mxCell>
                <mxCell id="88" value="" style="endArrow=none;html=1;" parent="1" edge="1">
                    <mxGeometry width="50" height="50" relative="1" as="geometry">
                        <mxPoint x="529" y="720" as="sourcePoint"/>
                        <mxPoint x="529" y="700" as="targetPoint"/>
                    </mxGeometry>
                </mxCell>
                <mxCell id="89" value="12" style="text;html=1;strokeColor=none;fillColor=none;align=center;verticalAlign=middle;whiteSpace=wrap;rounded=0;" parent="1" vertex="1">
                    <mxGeometry x="549" y="720" width="40" height="30" as="geometry"/>
                </mxCell>
                <mxCell id="90" value="" style="endArrow=none;html=1;" parent="1" edge="1">
                    <mxGeometry width="50" height="50" relative="1" as="geometry">
                        <mxPoint x="569" y="720" as="sourcePoint"/>
                        <mxPoint x="569" y="700" as="targetPoint"/>
                    </mxGeometry>
                </mxCell>
                <mxCell id="91" value="" style="endArrow=none;html=1;strokeWidth=4;fillColor=#dae8fc;strokeColor=#FF3333;" parent="1" edge="1">
                    <mxGeometry width="50" height="50" relative="1" as="geometry">
                        <mxPoint x="249" y="620" as="sourcePoint"/>
                        <mxPoint x="329" y="620" as="targetPoint"/>
                    </mxGeometry>
                </mxCell>
                <mxCell id="92" value="" style="endArrow=none;html=1;strokeWidth=4;fillColor=#dae8fc;strokeColor=#3414FF;" parent="1" edge="1">
                    <mxGeometry width="50" height="50" relative="1" as="geometry">
                        <mxPoint x="364.5" y="550" as="sourcePoint"/>
                        <mxPoint x="574.5" y="550" as="targetPoint"/>
                    </mxGeometry>
                </mxCell>
                <mxCell id="93" value="" style="endArrow=none;html=1;strokeWidth=4;fillColor=#dae8fc;strokeColor=#3414FF;" parent="1" edge="1">
                    <mxGeometry width="50" height="50" relative="1" as="geometry">
                        <mxPoint x="129" y="680" as="sourcePoint"/>
                        <mxPoint x="250" y="680" as="targetPoint"/>
                    </mxGeometry>
                </mxCell>
                <mxCell id="94" value="New" style="text;html=1;strokeColor=none;fillColor=none;align=center;verticalAlign=middle;whiteSpace=wrap;rounded=0;" parent="1" vertex="1">
                    <mxGeometry x="99" y="610" width="60" height="30" as="geometry"/>
                </mxCell>
                <mxCell id="95" value="Final" style="text;html=1;strokeColor=none;fillColor=none;align=center;verticalAlign=middle;whiteSpace=wrap;rounded=0;" parent="1" vertex="1">
                    <mxGeometry x="130" y="790" width="60" height="30" as="geometry"/>
                </mxCell>
                <mxCell id="96" value="" style="endArrow=none;html=1;strokeWidth=4;fillColor=#dae8fc;strokeColor=#3414FF;" parent="1" edge="1">
                    <mxGeometry width="50" height="50" relative="1" as="geometry">
                        <mxPoint x="209" y="804.5" as="sourcePoint"/>
                        <mxPoint x="330" y="804.5" as="targetPoint"/>
                    </mxGeometry>
                </mxCell>
                <mxCell id="97" value="" style="endArrow=none;html=1;strokeWidth=4;fillColor=#dae8fc;strokeColor=#FF3333;" parent="1" edge="1">
                    <mxGeometry width="50" height="50" relative="1" as="geometry">
                        <mxPoint x="349" y="769" as="sourcePoint"/>
                        <mxPoint x="429" y="769" as="targetPoint"/>
                    </mxGeometry>
                </mxCell>
                <mxCell id="99" value="1" style="text;html=1;strokeColor=#d6b656;fillColor=#fff2cc;align=center;verticalAlign=middle;whiteSpace=wrap;rounded=0;" parent="1" vertex="1">
                    <mxGeometry x="122" y="646" width="20" height="30" as="geometry"/>
                </mxCell>
                <mxCell id="100" value="4" style="text;html=1;strokeColor=#d6b656;fillColor=#fff2cc;align=center;verticalAlign=middle;whiteSpace=wrap;rounded=0;" parent="1" vertex="1">
                    <mxGeometry x="230" y="643" width="20" height="30" as="geometry"/>
                </mxCell>
                <mxCell id="101" value="4" style="text;html=1;strokeColor=#d6b656;fillColor=#fff2cc;align=center;verticalAlign=middle;whiteSpace=wrap;rounded=0;" parent="1" vertex="1">
                    <mxGeometry x="240" y="580" width="20" height="30" as="geometry"/>
                </mxCell>
                <mxCell id="102" value="6" style="text;html=1;strokeColor=#d6b656;fillColor=#fff2cc;align=center;verticalAlign=middle;whiteSpace=wrap;rounded=0;" parent="1" vertex="1">
                    <mxGeometry x="319" y="580" width="20" height="30" as="geometry"/>
                </mxCell>
                <mxCell id="103" value="7" style="text;html=1;strokeColor=#d6b656;fillColor=#fff2cc;align=center;verticalAlign=middle;whiteSpace=wrap;rounded=0;" parent="1" vertex="1">
                    <mxGeometry x="354.5" y="510" width="20" height="30" as="geometry"/>
                </mxCell>
                <mxCell id="104" value="12" style="text;html=1;strokeColor=#d6b656;fillColor=#fff2cc;align=center;verticalAlign=middle;whiteSpace=wrap;rounded=0;" parent="1" vertex="1">
                    <mxGeometry x="563.5" y="510" width="20" height="30" as="geometry"/>
                </mxCell>
                <mxCell id="105" value="1" style="text;html=1;strokeColor=#d6b656;fillColor=#fff2cc;align=center;verticalAlign=middle;whiteSpace=wrap;rounded=0;" parent="1" vertex="1">
                    <mxGeometry x="200" y="770" width="20" height="30" as="geometry"/>
                </mxCell>
                <mxCell id="106" value="4" style="text;html=1;strokeColor=#d6b656;fillColor=#fff2cc;align=center;verticalAlign=middle;whiteSpace=wrap;rounded=0;" parent="1" vertex="1">
                    <mxGeometry x="309" y="770" width="20" height="30" as="geometry"/>
                </mxCell>
                <mxCell id="107" value="" style="endArrow=none;html=1;" parent="1" edge="1">
                    <mxGeometry width="50" height="50" relative="1" as="geometry">
                        <mxPoint x="154" y="1120" as="sourcePoint"/>
                        <mxPoint x="594" y="1120" as="targetPoint"/>
                    </mxGeometry>
                </mxCell>
                <mxCell id="108" value="1" style="text;html=1;strokeColor=none;fillColor=none;align=center;verticalAlign=middle;whiteSpace=wrap;rounded=0;" parent="1" vertex="1">
                    <mxGeometry x="124" y="1130" width="60" height="30" as="geometry"/>
                </mxCell>
                <mxCell id="109" value="" style="endArrow=none;html=1;" parent="1" edge="1">
                    <mxGeometry width="50" height="50" relative="1" as="geometry">
                        <mxPoint x="154" y="1130" as="sourcePoint"/>
                        <mxPoint x="154" y="1110" as="targetPoint"/>
                    </mxGeometry>
                </mxCell>
                <mxCell id="110" value="2" style="text;html=1;strokeColor=none;fillColor=none;align=center;verticalAlign=middle;whiteSpace=wrap;rounded=0;" parent="1" vertex="1">
                    <mxGeometry x="164" y="1130" width="60" height="30" as="geometry"/>
                </mxCell>
                <mxCell id="111" value="" style="endArrow=none;html=1;" parent="1" edge="1">
                    <mxGeometry width="50" height="50" relative="1" as="geometry">
                        <mxPoint x="194" y="1130" as="sourcePoint"/>
                        <mxPoint x="194" y="1110" as="targetPoint"/>
                    </mxGeometry>
                </mxCell>
                <mxCell id="112" value="3" style="text;html=1;strokeColor=none;fillColor=none;align=center;verticalAlign=middle;whiteSpace=wrap;rounded=0;" parent="1" vertex="1">
                    <mxGeometry x="204" y="1130" width="60" height="30" as="geometry"/>
                </mxCell>
                <mxCell id="113" value="" style="endArrow=none;html=1;" parent="1" edge="1">
                    <mxGeometry width="50" height="50" relative="1" as="geometry">
                        <mxPoint x="234" y="1130" as="sourcePoint"/>
                        <mxPoint x="234" y="1110" as="targetPoint"/>
                    </mxGeometry>
                </mxCell>
                <mxCell id="114" value="4" style="text;html=1;strokeColor=none;fillColor=none;align=center;verticalAlign=middle;whiteSpace=wrap;rounded=0;" parent="1" vertex="1">
                    <mxGeometry x="244" y="1130" width="60" height="30" as="geometry"/>
                </mxCell>
                <mxCell id="115" value="" style="endArrow=none;html=1;" parent="1" edge="1">
                    <mxGeometry width="50" height="50" relative="1" as="geometry">
                        <mxPoint x="274" y="1130" as="sourcePoint"/>
                        <mxPoint x="274" y="1110" as="targetPoint"/>
                    </mxGeometry>
                </mxCell>
                <mxCell id="116" value="5" style="text;html=1;strokeColor=none;fillColor=none;align=center;verticalAlign=middle;whiteSpace=wrap;rounded=0;" parent="1" vertex="1">
                    <mxGeometry x="284" y="1130" width="60" height="30" as="geometry"/>
                </mxCell>
                <mxCell id="117" value="" style="endArrow=none;html=1;" parent="1" edge="1">
                    <mxGeometry width="50" height="50" relative="1" as="geometry">
                        <mxPoint x="314" y="1130" as="sourcePoint"/>
                        <mxPoint x="314" y="1110" as="targetPoint"/>
                    </mxGeometry>
                </mxCell>
                <mxCell id="118" value="6" style="text;html=1;strokeColor=none;fillColor=none;align=center;verticalAlign=middle;whiteSpace=wrap;rounded=0;" parent="1" vertex="1">
                    <mxGeometry x="334" y="1130" width="40" height="30" as="geometry"/>
                </mxCell>
                <mxCell id="119" value="" style="endArrow=none;html=1;" parent="1" edge="1">
                    <mxGeometry width="50" height="50" relative="1" as="geometry">
                        <mxPoint x="354" y="1130" as="sourcePoint"/>
                        <mxPoint x="354" y="1110" as="targetPoint"/>
                    </mxGeometry>
                </mxCell>
                <mxCell id="120" value="7" style="text;html=1;strokeColor=none;fillColor=none;align=center;verticalAlign=middle;whiteSpace=wrap;rounded=0;" parent="1" vertex="1">
                    <mxGeometry x="364" y="1130" width="60" height="30" as="geometry"/>
                </mxCell>
                <mxCell id="121" value="" style="endArrow=none;html=1;" parent="1" edge="1">
                    <mxGeometry width="50" height="50" relative="1" as="geometry">
                        <mxPoint x="394" y="1130" as="sourcePoint"/>
                        <mxPoint x="394" y="1110" as="targetPoint"/>
                    </mxGeometry>
                </mxCell>
                <mxCell id="122" value="8" style="text;html=1;strokeColor=none;fillColor=none;align=center;verticalAlign=middle;whiteSpace=wrap;rounded=0;" parent="1" vertex="1">
                    <mxGeometry x="404" y="1130" width="60" height="30" as="geometry"/>
                </mxCell>
                <mxCell id="123" value="" style="endArrow=none;html=1;" parent="1" edge="1">
                    <mxGeometry width="50" height="50" relative="1" as="geometry">
                        <mxPoint x="434" y="1130" as="sourcePoint"/>
                        <mxPoint x="434" y="1110" as="targetPoint"/>
                    </mxGeometry>
                </mxCell>
                <mxCell id="124" value="9" style="text;html=1;strokeColor=none;fillColor=none;align=center;verticalAlign=middle;whiteSpace=wrap;rounded=0;" parent="1" vertex="1">
                    <mxGeometry x="444" y="1130" width="60" height="30" as="geometry"/>
                </mxCell>
                <mxCell id="125" value="" style="endArrow=none;html=1;" parent="1" edge="1">
                    <mxGeometry width="50" height="50" relative="1" as="geometry">
                        <mxPoint x="474" y="1130" as="sourcePoint"/>
                        <mxPoint x="474" y="1110" as="targetPoint"/>
                    </mxGeometry>
                </mxCell>
                <mxCell id="126" value="10" style="text;html=1;strokeColor=none;fillColor=none;align=center;verticalAlign=middle;whiteSpace=wrap;rounded=0;" parent="1" vertex="1">
                    <mxGeometry x="484" y="1130" width="60" height="30" as="geometry"/>
                </mxCell>
                <mxCell id="127" value="" style="endArrow=none;html=1;" parent="1" edge="1">
                    <mxGeometry width="50" height="50" relative="1" as="geometry">
                        <mxPoint x="514" y="1130" as="sourcePoint"/>
                        <mxPoint x="514" y="1110" as="targetPoint"/>
                    </mxGeometry>
                </mxCell>
                <mxCell id="128" value="11" style="text;html=1;strokeColor=none;fillColor=none;align=center;verticalAlign=middle;whiteSpace=wrap;rounded=0;" parent="1" vertex="1">
                    <mxGeometry x="524" y="1130" width="60" height="30" as="geometry"/>
                </mxCell>
                <mxCell id="129" value="" style="endArrow=none;html=1;" parent="1" edge="1">
                    <mxGeometry width="50" height="50" relative="1" as="geometry">
                        <mxPoint x="554" y="1130" as="sourcePoint"/>
                        <mxPoint x="554" y="1110" as="targetPoint"/>
                    </mxGeometry>
                </mxCell>
                <mxCell id="130" value="12" style="text;html=1;strokeColor=none;fillColor=none;align=center;verticalAlign=middle;whiteSpace=wrap;rounded=0;" parent="1" vertex="1">
                    <mxGeometry x="574" y="1130" width="40" height="30" as="geometry"/>
                </mxCell>
                <mxCell id="131" value="" style="endArrow=none;html=1;" parent="1" edge="1">
                    <mxGeometry width="50" height="50" relative="1" as="geometry">
                        <mxPoint x="594" y="1130" as="sourcePoint"/>
                        <mxPoint x="594" y="1110" as="targetPoint"/>
                    </mxGeometry>
                </mxCell>
                <mxCell id="132" value="" style="endArrow=none;html=1;strokeWidth=4;fillColor=#dae8fc;strokeColor=#FF3333;" parent="1" edge="1">
                    <mxGeometry width="50" height="50" relative="1" as="geometry">
                        <mxPoint x="274" y="1030" as="sourcePoint"/>
                        <mxPoint x="354" y="1030" as="targetPoint"/>
                    </mxGeometry>
                </mxCell>
                <mxCell id="133" value="" style="endArrow=none;html=1;strokeWidth=4;fillColor=#dae8fc;strokeColor=#3414FF;" parent="1" edge="1">
                    <mxGeometry width="50" height="50" relative="1" as="geometry">
                        <mxPoint x="305" y="960" as="sourcePoint"/>
                        <mxPoint x="515" y="960" as="targetPoint"/>
                    </mxGeometry>
                </mxCell>
                <mxCell id="134" value="" style="endArrow=none;html=1;strokeWidth=4;fillColor=#dae8fc;strokeColor=#3414FF;" parent="1" edge="1">
                    <mxGeometry width="50" height="50" relative="1" as="geometry">
                        <mxPoint x="154" y="1090" as="sourcePoint"/>
                        <mxPoint x="275" y="1090" as="targetPoint"/>
                    </mxGeometry>
                </mxCell>
                <mxCell id="135" value="New" style="text;html=1;strokeColor=none;fillColor=none;align=center;verticalAlign=middle;whiteSpace=wrap;rounded=0;" parent="1" vertex="1">
                    <mxGeometry x="244" y="960" width="60" height="30" as="geometry"/>
                </mxCell>
                <mxCell id="136" value="Final" style="text;html=1;strokeColor=none;fillColor=none;align=center;verticalAlign=middle;whiteSpace=wrap;rounded=0;" parent="1" vertex="1">
                    <mxGeometry x="155.5" y="1271" width="60" height="30" as="geometry"/>
                </mxCell>
                <mxCell id="137" value="" style="endArrow=none;html=1;strokeWidth=4;fillColor=#dae8fc;strokeColor=#3414FF;" parent="1" edge="1">
                    <mxGeometry width="50" height="50" relative="1" as="geometry">
                        <mxPoint x="234.5" y="1285.5" as="sourcePoint"/>
                        <mxPoint x="355.5" y="1285.5" as="targetPoint"/>
                    </mxGeometry>
                </mxCell>
                <mxCell id="138" value="" style="endArrow=none;html=1;strokeWidth=4;fillColor=#dae8fc;strokeColor=#FF3333;" parent="1" edge="1">
                    <mxGeometry width="50" height="50" relative="1" as="geometry">
                        <mxPoint x="360" y="1220" as="sourcePoint"/>
                        <mxPoint x="580" y="1220" as="targetPoint"/>
                    </mxGeometry>
                </mxCell>
                <mxCell id="139" value="1" style="text;html=1;strokeColor=#d6b656;fillColor=#fff2cc;align=center;verticalAlign=middle;whiteSpace=wrap;rounded=0;" parent="1" vertex="1">
                    <mxGeometry x="147" y="1056" width="20" height="30" as="geometry"/>
                </mxCell>
                <mxCell id="140" value="4" style="text;html=1;strokeColor=#d6b656;fillColor=#fff2cc;align=center;verticalAlign=middle;whiteSpace=wrap;rounded=0;" parent="1" vertex="1">
                    <mxGeometry x="255" y="1053" width="20" height="30" as="geometry"/>
                </mxCell>
                <mxCell id="141" value="4" style="text;html=1;strokeColor=#d6b656;fillColor=#fff2cc;align=center;verticalAlign=middle;whiteSpace=wrap;rounded=0;" parent="1" vertex="1">
                    <mxGeometry x="265" y="990" width="20" height="30" as="geometry"/>
                </mxCell>
                <mxCell id="142" value="6" style="text;html=1;strokeColor=#d6b656;fillColor=#fff2cc;align=center;verticalAlign=middle;whiteSpace=wrap;rounded=0;" parent="1" vertex="1">
                    <mxGeometry x="344" y="990" width="20" height="30" as="geometry"/>
                </mxCell>
                <mxCell id="143" value="5" style="text;html=1;strokeColor=#d6b656;fillColor=#fff2cc;align=center;verticalAlign=middle;whiteSpace=wrap;rounded=0;" parent="1" vertex="1">
                    <mxGeometry x="295" y="920" width="20" height="30" as="geometry"/>
                </mxCell>
                <mxCell id="144" value="10" style="text;html=1;strokeColor=#d6b656;fillColor=#fff2cc;align=center;verticalAlign=middle;whiteSpace=wrap;rounded=0;" parent="1" vertex="1">
                    <mxGeometry x="504" y="920" width="20" height="30" as="geometry"/>
                </mxCell>
                <mxCell id="145" value="1" style="text;html=1;strokeColor=#d6b656;fillColor=#fff2cc;align=center;verticalAlign=middle;whiteSpace=wrap;rounded=0;" parent="1" vertex="1">
                    <mxGeometry x="225.5" y="1251" width="20" height="30" as="geometry"/>
                </mxCell>
                <mxCell id="146" value="4" style="text;html=1;strokeColor=#d6b656;fillColor=#fff2cc;align=center;verticalAlign=middle;whiteSpace=wrap;rounded=0;" parent="1" vertex="1">
                    <mxGeometry x="334.5" y="1251" width="20" height="30" as="geometry"/>
                </mxCell>
                <mxCell id="147" value="" style="endArrow=none;html=1;strokeWidth=4;fillColor=#dae8fc;strokeColor=#3414FF;" parent="1" edge="1">
                    <mxGeometry width="50" height="50" relative="1" as="geometry">
                        <mxPoint x="439" y="900" as="sourcePoint"/>
                        <mxPoint x="649" y="900" as="targetPoint"/>
                    </mxGeometry>
                </mxCell>
                <mxCell id="148" value="8" style="text;html=1;strokeColor=#d6b656;fillColor=#fff2cc;align=center;verticalAlign=middle;whiteSpace=wrap;rounded=0;" parent="1" vertex="1">
                    <mxGeometry x="439" y="860" width="20" height="30" as="geometry"/>
                </mxCell>
                <mxCell id="149" value="13" style="text;html=1;strokeColor=#d6b656;fillColor=#fff2cc;align=center;verticalAlign=middle;whiteSpace=wrap;rounded=0;" parent="1" vertex="1">
                    <mxGeometry x="630" y="850" width="20" height="30" as="geometry"/>
                </mxCell>
                <mxCell id="150" value="4" style="text;html=1;strokeColor=#d6b656;fillColor=#fff2cc;align=center;verticalAlign=middle;whiteSpace=wrap;rounded=0;" parent="1" vertex="1">
                    <mxGeometry x="354.5" y="1180" width="20" height="30" as="geometry"/>
                </mxCell>
                <mxCell id="151" value="10" style="text;html=1;strokeColor=#d6b656;fillColor=#fff2cc;align=center;verticalAlign=middle;whiteSpace=wrap;rounded=0;" parent="1" vertex="1">
                    <mxGeometry x="564" y="1180" width="20" height="30" as="geometry"/>
                </mxCell>
                <mxCell id="152" value="the new merged interval is 4-10; but we do not know whether it will merge with next interval" style="text;html=1;strokeColor=#b85450;fillColor=#f8cecc;align=center;verticalAlign=middle;whiteSpace=wrap;rounded=0;" parent="1" vertex="1">
                    <mxGeometry x="402" y="1260" width="258" height="30" as="geometry"/>
                </mxCell>
            </root>
        </mxGraphModel>
    </diagram>
    <diagram id="Pve_6jY0V2z2UBf5iC-B" name="Page-2">
        <mxGraphModel dx="1182" dy="853" grid="1" gridSize="10" guides="1" tooltips="1" connect="1" arrows="1" fold="1" page="1" pageScale="1" pageWidth="827" pageHeight="1169" math="0" shadow="0">
            <root>
                <mxCell id="ZjP3Wqjl1fqwpnuoiPml-0"/>
                <mxCell id="ZjP3Wqjl1fqwpnuoiPml-1" parent="ZjP3Wqjl1fqwpnuoiPml-0"/>
                <mxCell id="X-LPWoe0p8O_krVAvL8X-0" value="" style="endArrow=none;html=1;strokeWidth=4;fillColor=#dae8fc;strokeColor=#3414FF;" edge="1" parent="ZjP3Wqjl1fqwpnuoiPml-1">
                    <mxGeometry width="50" height="50" relative="1" as="geometry">
                        <mxPoint x="270" y="190" as="sourcePoint"/>
                        <mxPoint x="400" y="190" as="targetPoint"/>
                    </mxGeometry>
                </mxCell>
                <mxCell id="X-LPWoe0p8O_krVAvL8X-1" value="" style="endArrow=none;html=1;strokeWidth=4;fillColor=#dae8fc;strokeColor=#3414FF;" edge="1" parent="ZjP3Wqjl1fqwpnuoiPml-1">
                    <mxGeometry width="50" height="50" relative="1" as="geometry">
                        <mxPoint x="360" y="120" as="sourcePoint"/>
                        <mxPoint x="561" y="120" as="targetPoint"/>
                    </mxGeometry>
                </mxCell>
                <mxCell id="X-LPWoe0p8O_krVAvL8X-2" value="" style="endArrow=none;html=1;strokeWidth=4;fillColor=#dae8fc;strokeColor=#FF3333;" edge="1" parent="ZjP3Wqjl1fqwpnuoiPml-1">
                    <mxGeometry width="50" height="50" relative="1" as="geometry">
                        <mxPoint x="200" y="250" as="sourcePoint"/>
                        <mxPoint x="321" y="250" as="targetPoint"/>
                    </mxGeometry>
                </mxCell>
                <mxCell id="X-LPWoe0p8O_krVAvL8X-4" value="1" style="text;html=1;strokeColor=#d6b656;fillColor=#fff2cc;align=center;verticalAlign=middle;whiteSpace=wrap;rounded=0;" vertex="1" parent="ZjP3Wqjl1fqwpnuoiPml-1">
                    <mxGeometry x="193" y="216" width="20" height="30" as="geometry"/>
                </mxCell>
                <mxCell id="X-LPWoe0p8O_krVAvL8X-5" value="4" style="text;html=1;strokeColor=#d6b656;fillColor=#fff2cc;align=center;verticalAlign=middle;whiteSpace=wrap;rounded=0;" vertex="1" parent="ZjP3Wqjl1fqwpnuoiPml-1">
                    <mxGeometry x="301" y="213" width="20" height="30" as="geometry"/>
                </mxCell>
                <mxCell id="X-LPWoe0p8O_krVAvL8X-6" value="2" style="text;html=1;strokeColor=#d6b656;fillColor=#fff2cc;align=center;verticalAlign=middle;whiteSpace=wrap;rounded=0;" vertex="1" parent="ZjP3Wqjl1fqwpnuoiPml-1">
                    <mxGeometry x="260" y="150" width="20" height="30" as="geometry"/>
                </mxCell>
                <mxCell id="X-LPWoe0p8O_krVAvL8X-7" value="6" style="text;html=1;strokeColor=#d6b656;fillColor=#fff2cc;align=center;verticalAlign=middle;whiteSpace=wrap;rounded=0;" vertex="1" parent="ZjP3Wqjl1fqwpnuoiPml-1">
                    <mxGeometry x="390" y="150" width="20" height="30" as="geometry"/>
                </mxCell>
                <mxCell id="X-LPWoe0p8O_krVAvL8X-8" value="5" style="text;html=1;strokeColor=#d6b656;fillColor=#fff2cc;align=center;verticalAlign=middle;whiteSpace=wrap;rounded=0;" vertex="1" parent="ZjP3Wqjl1fqwpnuoiPml-1">
                    <mxGeometry x="350" y="80" width="20" height="30" as="geometry"/>
                </mxCell>
                <mxCell id="X-LPWoe0p8O_krVAvL8X-9" value="10" style="text;html=1;strokeColor=#d6b656;fillColor=#fff2cc;align=center;verticalAlign=middle;whiteSpace=wrap;rounded=0;" vertex="1" parent="ZjP3Wqjl1fqwpnuoiPml-1">
                    <mxGeometry x="550" y="80" width="20" height="30" as="geometry"/>
                </mxCell>
                <mxCell id="X-LPWoe0p8O_krVAvL8X-10" value="Overlaping" style="shape=agent;offsetSize=8;strokeWidth=2;fillColor=none;dashed=1;" vertex="1" parent="ZjP3Wqjl1fqwpnuoiPml-1">
                    <mxGeometry x="160" y="140" width="280" height="134" as="geometry"/>
                </mxCell>
                <mxCell id="X-LPWoe0p8O_krVAvL8X-11" value="" style="endArrow=none;html=1;strokeWidth=4;fillColor=#dae8fc;strokeColor=#3414FF;" edge="1" parent="ZjP3Wqjl1fqwpnuoiPml-1">
                    <mxGeometry width="50" height="50" relative="1" as="geometry">
                        <mxPoint x="270" y="410" as="sourcePoint"/>
                        <mxPoint x="400" y="410" as="targetPoint"/>
                    </mxGeometry>
                </mxCell>
                <mxCell id="X-LPWoe0p8O_krVAvL8X-12" value="" style="endArrow=none;html=1;strokeWidth=4;fillColor=#dae8fc;strokeColor=#3414FF;" edge="1" parent="ZjP3Wqjl1fqwpnuoiPml-1">
                    <mxGeometry width="50" height="50" relative="1" as="geometry">
                        <mxPoint x="360" y="340" as="sourcePoint"/>
                        <mxPoint x="561" y="340" as="targetPoint"/>
                    </mxGeometry>
                </mxCell>
                <mxCell id="X-LPWoe0p8O_krVAvL8X-13" value="" style="endArrow=none;html=1;strokeWidth=4;fillColor=#dae8fc;strokeColor=#FF3333;" edge="1" parent="ZjP3Wqjl1fqwpnuoiPml-1">
                    <mxGeometry width="50" height="50" relative="1" as="geometry">
                        <mxPoint x="200" y="470" as="sourcePoint"/>
                        <mxPoint x="321" y="470" as="targetPoint"/>
                    </mxGeometry>
                </mxCell>
                <mxCell id="X-LPWoe0p8O_krVAvL8X-14" value="1" style="text;html=1;strokeColor=#d6b656;fillColor=#fff2cc;align=center;verticalAlign=middle;whiteSpace=wrap;rounded=0;" vertex="1" parent="ZjP3Wqjl1fqwpnuoiPml-1">
                    <mxGeometry x="193" y="436" width="20" height="30" as="geometry"/>
                </mxCell>
                <mxCell id="X-LPWoe0p8O_krVAvL8X-15" value="4" style="text;html=1;strokeColor=#d6b656;fillColor=#fff2cc;align=center;verticalAlign=middle;whiteSpace=wrap;rounded=0;" vertex="1" parent="ZjP3Wqjl1fqwpnuoiPml-1">
                    <mxGeometry x="301" y="433" width="20" height="30" as="geometry"/>
                </mxCell>
                <mxCell id="X-LPWoe0p8O_krVAvL8X-16" value="2" style="text;html=1;strokeColor=#d6b656;fillColor=#fff2cc;align=center;verticalAlign=middle;whiteSpace=wrap;rounded=0;" vertex="1" parent="ZjP3Wqjl1fqwpnuoiPml-1">
                    <mxGeometry x="260" y="370" width="20" height="30" as="geometry"/>
                </mxCell>
                <mxCell id="X-LPWoe0p8O_krVAvL8X-17" value="6" style="text;html=1;strokeColor=#d6b656;fillColor=#fff2cc;align=center;verticalAlign=middle;whiteSpace=wrap;rounded=0;" vertex="1" parent="ZjP3Wqjl1fqwpnuoiPml-1">
                    <mxGeometry x="390" y="370" width="20" height="30" as="geometry"/>
                </mxCell>
                <mxCell id="X-LPWoe0p8O_krVAvL8X-18" value="5" style="text;html=1;strokeColor=#d6b656;fillColor=#fff2cc;align=center;verticalAlign=middle;whiteSpace=wrap;rounded=0;" vertex="1" parent="ZjP3Wqjl1fqwpnuoiPml-1">
                    <mxGeometry x="350" y="300" width="20" height="30" as="geometry"/>
                </mxCell>
                <mxCell id="X-LPWoe0p8O_krVAvL8X-19" value="10" style="text;html=1;strokeColor=#d6b656;fillColor=#fff2cc;align=center;verticalAlign=middle;whiteSpace=wrap;rounded=0;" vertex="1" parent="ZjP3Wqjl1fqwpnuoiPml-1">
                    <mxGeometry x="550" y="300" width="20" height="30" as="geometry"/>
                </mxCell>
                <mxCell id="X-LPWoe0p8O_krVAvL8X-20" value="Overlaping" style="shape=agent;offsetSize=8;strokeWidth=2;fillColor=none;dashed=1;" vertex="1" parent="ZjP3Wqjl1fqwpnuoiPml-1">
                    <mxGeometry x="240" y="290" width="350" height="134" as="geometry"/>
                </mxCell>
                <mxCell id="X-LPWoe0p8O_krVAvL8X-22" value="" style="endArrow=none;html=1;strokeWidth=4;fillColor=#dae8fc;strokeColor=#3414FF;" edge="1" parent="ZjP3Wqjl1fqwpnuoiPml-1">
                    <mxGeometry width="50" height="50" relative="1" as="geometry">
                        <mxPoint x="360" y="560" as="sourcePoint"/>
                        <mxPoint x="561" y="560" as="targetPoint"/>
                    </mxGeometry>
                </mxCell>
                <mxCell id="X-LPWoe0p8O_krVAvL8X-23" value="" style="endArrow=none;html=1;strokeWidth=4;fillColor=#dae8fc;strokeColor=#FF3333;" edge="1" parent="ZjP3Wqjl1fqwpnuoiPml-1">
                    <mxGeometry width="50" height="50" relative="1" as="geometry">
                        <mxPoint x="200" y="690" as="sourcePoint"/>
                        <mxPoint x="321" y="690" as="targetPoint"/>
                    </mxGeometry>
                </mxCell>
                <mxCell id="X-LPWoe0p8O_krVAvL8X-24" value="1" style="text;html=1;strokeColor=#d6b656;fillColor=#fff2cc;align=center;verticalAlign=middle;whiteSpace=wrap;rounded=0;" vertex="1" parent="ZjP3Wqjl1fqwpnuoiPml-1">
                    <mxGeometry x="193" y="656" width="20" height="30" as="geometry"/>
                </mxCell>
                <mxCell id="X-LPWoe0p8O_krVAvL8X-25" value="4" style="text;html=1;strokeColor=#d6b656;fillColor=#fff2cc;align=center;verticalAlign=middle;whiteSpace=wrap;rounded=0;" vertex="1" parent="ZjP3Wqjl1fqwpnuoiPml-1">
                    <mxGeometry x="301" y="653" width="20" height="30" as="geometry"/>
                </mxCell>
                <mxCell id="X-LPWoe0p8O_krVAvL8X-28" value="5" style="text;html=1;strokeColor=#d6b656;fillColor=#fff2cc;align=center;verticalAlign=middle;whiteSpace=wrap;rounded=0;" vertex="1" parent="ZjP3Wqjl1fqwpnuoiPml-1">
                    <mxGeometry x="350" y="520" width="20" height="30" as="geometry"/>
                </mxCell>
                <mxCell id="X-LPWoe0p8O_krVAvL8X-29" value="10" style="text;html=1;strokeColor=#d6b656;fillColor=#fff2cc;align=center;verticalAlign=middle;whiteSpace=wrap;rounded=0;" vertex="1" parent="ZjP3Wqjl1fqwpnuoiPml-1">
                    <mxGeometry x="550" y="520" width="20" height="30" as="geometry"/>
                </mxCell>
                <mxCell id="X-LPWoe0p8O_krVAvL8X-30" value="Non Overlaping" style="shape=agent;offsetSize=8;strokeWidth=2;fillColor=none;dashed=1;" vertex="1" parent="ZjP3Wqjl1fqwpnuoiPml-1">
                    <mxGeometry x="185" y="500" width="415" height="220" as="geometry"/>
                </mxCell>
            </root>
        </mxGraphModel>
    </diagram>
    <diagram id="GtXlVhIAtAsupE4OBML1" name="Page-3">
        <mxGraphModel dx="698" dy="1483" grid="1" gridSize="10" guides="1" tooltips="1" connect="1" arrows="1" fold="1" page="1" pageScale="1" pageWidth="827" pageHeight="1169" math="0" shadow="0">
            <root>
                <mxCell id="I79QwC35za2RviMJt-uJ-0"/>
                <mxCell id="I79QwC35za2RviMJt-uJ-1" parent="I79QwC35za2RviMJt-uJ-0"/>
                <mxCell id="x_EVsy3UPLJIxTeTbAjg-29" value="" style="endArrow=none;html=1;strokeColor=#0A0101;" parent="I79QwC35za2RviMJt-uJ-1" edge="1">
                    <mxGeometry width="50" height="50" relative="1" as="geometry">
                        <mxPoint x="323.5" y="135" as="sourcePoint"/>
                        <mxPoint x="324" y="-50" as="targetPoint"/>
                    </mxGeometry>
                </mxCell>
                <mxCell id="x_EVsy3UPLJIxTeTbAjg-12" value="" style="endArrow=none;html=1;strokeColor=#0A0101;" parent="I79QwC35za2RviMJt-uJ-1" edge="1">
                    <mxGeometry width="50" height="50" relative="1" as="geometry">
                        <mxPoint x="200" y="130" as="sourcePoint"/>
                        <mxPoint x="200" y="-50" as="targetPoint"/>
                    </mxGeometry>
                </mxCell>
                <mxCell id="x_EVsy3UPLJIxTeTbAjg-0" value="" style="endArrow=none;html=1;strokeWidth=4;fillColor=#dae8fc;strokeColor=#3414FF;" parent="I79QwC35za2RviMJt-uJ-1" edge="1">
                    <mxGeometry width="50" height="50" relative="1" as="geometry">
                        <mxPoint x="130" y="80" as="sourcePoint"/>
                        <mxPoint x="520" y="80" as="targetPoint"/>
                    </mxGeometry>
                </mxCell>
                <mxCell id="x_EVsy3UPLJIxTeTbAjg-1" value="0" style="text;html=1;strokeColor=#d6b656;fillColor=#fff2cc;align=center;verticalAlign=middle;whiteSpace=wrap;rounded=0;" parent="I79QwC35za2RviMJt-uJ-1" vertex="1">
                    <mxGeometry x="120" y="40" width="20" height="30" as="geometry"/>
                </mxCell>
                <mxCell id="x_EVsy3UPLJIxTeTbAjg-2" value="30" style="text;html=1;strokeColor=#d6b656;fillColor=#fff2cc;align=center;verticalAlign=middle;whiteSpace=wrap;rounded=0;" parent="I79QwC35za2RviMJt-uJ-1" vertex="1">
                    <mxGeometry x="510" y="40" width="20" height="30" as="geometry"/>
                </mxCell>
                <mxCell id="x_EVsy3UPLJIxTeTbAjg-3" value="" style="endArrow=none;html=1;strokeWidth=4;fillColor=#dae8fc;strokeColor=#3414FF;" parent="I79QwC35za2RviMJt-uJ-1" edge="1">
                    <mxGeometry width="50" height="50" relative="1" as="geometry">
                        <mxPoint x="200" y="40" as="sourcePoint"/>
                        <mxPoint x="280" y="40" as="targetPoint"/>
                    </mxGeometry>
                </mxCell>
                <mxCell id="x_EVsy3UPLJIxTeTbAjg-4" value="5" style="text;html=1;strokeColor=#d6b656;fillColor=#fff2cc;align=center;verticalAlign=middle;whiteSpace=wrap;rounded=0;" parent="I79QwC35za2RviMJt-uJ-1" vertex="1">
                    <mxGeometry x="190" width="20" height="30" as="geometry"/>
                </mxCell>
                <mxCell id="x_EVsy3UPLJIxTeTbAjg-5" value="10" style="text;html=1;strokeColor=#d6b656;fillColor=#fff2cc;align=center;verticalAlign=middle;whiteSpace=wrap;rounded=0;" parent="I79QwC35za2RviMJt-uJ-1" vertex="1">
                    <mxGeometry x="270" width="20" height="30" as="geometry"/>
                </mxCell>
                <mxCell id="x_EVsy3UPLJIxTeTbAjg-6" value="" style="endArrow=none;html=1;strokeWidth=4;fillColor=#dae8fc;strokeColor=#3414FF;" parent="I79QwC35za2RviMJt-uJ-1" edge="1">
                    <mxGeometry width="50" height="50" relative="1" as="geometry">
                        <mxPoint x="324" y="40" as="sourcePoint"/>
                        <mxPoint x="404" y="40" as="targetPoint"/>
                    </mxGeometry>
                </mxCell>
                <mxCell id="x_EVsy3UPLJIxTeTbAjg-7" value="15" style="text;html=1;strokeColor=#d6b656;fillColor=#fff2cc;align=center;verticalAlign=middle;whiteSpace=wrap;rounded=0;" parent="I79QwC35za2RviMJt-uJ-1" vertex="1">
                    <mxGeometry x="314" width="20" height="30" as="geometry"/>
                </mxCell>
                <mxCell id="x_EVsy3UPLJIxTeTbAjg-8" value="20" style="text;html=1;strokeColor=#d6b656;fillColor=#fff2cc;align=center;verticalAlign=middle;whiteSpace=wrap;rounded=0;" parent="I79QwC35za2RviMJt-uJ-1" vertex="1">
                    <mxGeometry x="394" width="20" height="30" as="geometry"/>
                </mxCell>
                <mxCell id="x_EVsy3UPLJIxTeTbAjg-9" value="Meeting Interval" style="text;html=1;strokeColor=none;fillColor=none;align=center;verticalAlign=middle;whiteSpace=wrap;rounded=0;dashed=1;" parent="I79QwC35za2RviMJt-uJ-1" vertex="1">
                    <mxGeometry x="40" y="-40" width="60" height="30" as="geometry"/>
                </mxCell>
                <mxCell id="x_EVsy3UPLJIxTeTbAjg-10" value="" style="endArrow=none;html=1;strokeColor=#0A0101;" parent="I79QwC35za2RviMJt-uJ-1" edge="1">
                    <mxGeometry width="50" height="50" relative="1" as="geometry">
                        <mxPoint x="130" y="130" as="sourcePoint"/>
                        <mxPoint x="130" y="80" as="targetPoint"/>
                    </mxGeometry>
                </mxCell>
                <mxCell id="x_EVsy3UPLJIxTeTbAjg-11" value="1" style="text;html=1;strokeColor=none;fillColor=none;align=center;verticalAlign=middle;whiteSpace=wrap;rounded=0;dashed=1;" parent="I79QwC35za2RviMJt-uJ-1" vertex="1">
                    <mxGeometry x="100" y="140" width="60" height="30" as="geometry"/>
                </mxCell>
                <mxCell id="x_EVsy3UPLJIxTeTbAjg-13" value="2" style="text;html=1;strokeColor=none;fillColor=none;align=center;verticalAlign=middle;whiteSpace=wrap;rounded=0;dashed=1;" parent="I79QwC35za2RviMJt-uJ-1" vertex="1">
                    <mxGeometry x="170" y="140" width="60" height="30" as="geometry"/>
                </mxCell>
                <mxCell id="x_EVsy3UPLJIxTeTbAjg-14" value="" style="endArrow=none;html=1;strokeColor=#0A0101;" parent="I79QwC35za2RviMJt-uJ-1" edge="1">
                    <mxGeometry width="50" height="50" relative="1" as="geometry">
                        <mxPoint x="280" y="130" as="sourcePoint"/>
                        <mxPoint x="280" y="80" as="targetPoint"/>
                    </mxGeometry>
                </mxCell>
                <mxCell id="x_EVsy3UPLJIxTeTbAjg-15" value="1" style="text;html=1;strokeColor=none;fillColor=none;align=center;verticalAlign=middle;whiteSpace=wrap;rounded=0;dashed=1;" parent="I79QwC35za2RviMJt-uJ-1" vertex="1">
                    <mxGeometry x="250" y="140" width="60" height="30" as="geometry"/>
                </mxCell>
                <mxCell id="x_EVsy3UPLJIxTeTbAjg-16" value="" style="endArrow=none;html=1;strokeColor=#0A0101;" parent="I79QwC35za2RviMJt-uJ-1" edge="1">
                    <mxGeometry width="50" height="50" relative="1" as="geometry">
                        <mxPoint x="403.5" y="130" as="sourcePoint"/>
                        <mxPoint x="403.5" y="80" as="targetPoint"/>
                    </mxGeometry>
                </mxCell>
                <mxCell id="x_EVsy3UPLJIxTeTbAjg-17" value="2" style="text;html=1;strokeColor=none;fillColor=none;align=center;verticalAlign=middle;whiteSpace=wrap;rounded=0;dashed=1;" parent="I79QwC35za2RviMJt-uJ-1" vertex="1">
                    <mxGeometry x="300" y="140" width="60" height="30" as="geometry"/>
                </mxCell>
                <mxCell id="x_EVsy3UPLJIxTeTbAjg-18" value="1" style="text;html=1;strokeColor=none;fillColor=none;align=center;verticalAlign=middle;whiteSpace=wrap;rounded=0;dashed=1;" parent="I79QwC35za2RviMJt-uJ-1" vertex="1">
                    <mxGeometry x="374" y="135" width="60" height="30" as="geometry"/>
                </mxCell>
                <mxCell id="x_EVsy3UPLJIxTeTbAjg-19" value="" style="endArrow=none;html=1;strokeColor=#0A0101;" parent="I79QwC35za2RviMJt-uJ-1" edge="1">
                    <mxGeometry width="50" height="50" relative="1" as="geometry">
                        <mxPoint x="509.5" y="130" as="sourcePoint"/>
                        <mxPoint x="509.5" y="80" as="targetPoint"/>
                    </mxGeometry>
                </mxCell>
                <mxCell id="x_EVsy3UPLJIxTeTbAjg-20" value="1" style="text;html=1;strokeColor=none;fillColor=none;align=center;verticalAlign=middle;whiteSpace=wrap;rounded=0;dashed=1;" parent="I79QwC35za2RviMJt-uJ-1" vertex="1">
                    <mxGeometry x="480" y="135" width="60" height="30" as="geometry"/>
                </mxCell>
                <mxCell id="x_EVsy3UPLJIxTeTbAjg-21" value="Number of Rooms" style="text;html=1;strokeColor=none;fillColor=none;align=center;verticalAlign=middle;whiteSpace=wrap;rounded=0;dashed=1;" parent="I79QwC35za2RviMJt-uJ-1" vertex="1">
                    <mxGeometry x="40" y="135" width="60" height="30" as="geometry"/>
                </mxCell>
                <mxCell id="x_EVsy3UPLJIxTeTbAjg-22" value="Room1" style="text;html=1;strokeColor=#666666;fillColor=#f5f5f5;align=center;verticalAlign=middle;whiteSpace=wrap;rounded=0;dashed=1;fontColor=#333333;" parent="I79QwC35za2RviMJt-uJ-1" vertex="1">
                    <mxGeometry x="50" y="310" width="60" height="30" as="geometry"/>
                </mxCell>
                <mxCell id="x_EVsy3UPLJIxTeTbAjg-23" value="Room2" style="text;html=1;strokeColor=#6c8ebf;fillColor=#dae8fc;align=center;verticalAlign=middle;whiteSpace=wrap;rounded=0;dashed=1;" parent="I79QwC35za2RviMJt-uJ-1" vertex="1">
                    <mxGeometry x="50" y="340" width="60" height="30" as="geometry"/>
                </mxCell>
                <mxCell id="x_EVsy3UPLJIxTeTbAjg-24" value="5 -10" style="text;html=1;strokeColor=#666666;fillColor=#f5f5f5;align=center;verticalAlign=middle;whiteSpace=wrap;rounded=0;dashed=1;fontColor=#333333;" parent="I79QwC35za2RviMJt-uJ-1" vertex="1">
                    <mxGeometry x="140" y="310" width="60" height="30" as="geometry"/>
                </mxCell>
                <mxCell id="x_EVsy3UPLJIxTeTbAjg-25" value="0 - 30" style="text;html=1;strokeColor=#6c8ebf;fillColor=#dae8fc;align=center;verticalAlign=middle;whiteSpace=wrap;rounded=0;dashed=1;" parent="I79QwC35za2RviMJt-uJ-1" vertex="1">
                    <mxGeometry x="140" y="340" width="140" height="30" as="geometry"/>
                </mxCell>
                <mxCell id="x_EVsy3UPLJIxTeTbAjg-26" value="15 -20" style="text;html=1;strokeColor=#666666;fillColor=#f5f5f5;align=center;verticalAlign=middle;whiteSpace=wrap;rounded=0;dashed=1;fontColor=#333333;" parent="I79QwC35za2RviMJt-uJ-1" vertex="1">
                    <mxGeometry x="220" y="310" width="60" height="30" as="geometry"/>
                </mxCell>
                <mxCell id="x_EVsy3UPLJIxTeTbAjg-28" style="edgeStyle=none;html=1;strokeColor=#0A0101;" parent="I79QwC35za2RviMJt-uJ-1" source="x_EVsy3UPLJIxTeTbAjg-27" edge="1">
                    <mxGeometry relative="1" as="geometry">
                        <mxPoint x="200" y="130" as="targetPoint"/>
                    </mxGeometry>
                </mxCell>
                <mxCell id="x_EVsy3UPLJIxTeTbAjg-27" value="when teh first meeting in progress , another meeting starst here" style="text;html=1;strokeColor=#b85450;fillColor=#f8cecc;align=center;verticalAlign=middle;whiteSpace=wrap;rounded=0;dashed=1;" parent="I79QwC35za2RviMJt-uJ-1" vertex="1">
                    <mxGeometry x="50" y="180" width="320" height="30" as="geometry"/>
                </mxCell>
                <mxCell id="x_EVsy3UPLJIxTeTbAjg-31" style="edgeStyle=none;html=1;strokeColor=#0A0101;" parent="I79QwC35za2RviMJt-uJ-1" source="x_EVsy3UPLJIxTeTbAjg-30" edge="1">
                    <mxGeometry relative="1" as="geometry">
                        <mxPoint x="330" y="130" as="targetPoint"/>
                    </mxGeometry>
                </mxCell>
                <mxCell id="x_EVsy3UPLJIxTeTbAjg-30" value="when teh first meeting in progress , another meeting starst here" style="text;html=1;strokeColor=#b85450;fillColor=#f8cecc;align=center;verticalAlign=middle;whiteSpace=wrap;rounded=0;dashed=1;" parent="I79QwC35za2RviMJt-uJ-1" vertex="1">
                    <mxGeometry x="270" y="230" width="320" height="30" as="geometry"/>
                </mxCell>
                <mxCell id="x_EVsy3UPLJIxTeTbAjg-32" value="Sorted Start Times" style="text;html=1;strokeColor=none;fillColor=none;align=center;verticalAlign=middle;whiteSpace=wrap;rounded=0;dashed=1;" parent="I79QwC35za2RviMJt-uJ-1" vertex="1">
                    <mxGeometry x="70" y="570" width="140" height="30" as="geometry"/>
                </mxCell>
                <mxCell id="x_EVsy3UPLJIxTeTbAjg-33" value="Sorted End Times" style="text;html=1;strokeColor=none;fillColor=none;align=center;verticalAlign=middle;whiteSpace=wrap;rounded=0;dashed=1;" parent="I79QwC35za2RviMJt-uJ-1" vertex="1">
                    <mxGeometry x="70" y="645" width="140" height="30" as="geometry"/>
                </mxCell>
                <mxCell id="x_EVsy3UPLJIxTeTbAjg-40" value="" style="shape=table;startSize=0;container=1;collapsible=0;childLayout=tableLayout;fillColor=none;" parent="I79QwC35za2RviMJt-uJ-1" vertex="1">
                    <mxGeometry x="240" y="565" width="290" height="40" as="geometry"/>
                </mxCell>
                <mxCell id="x_EVsy3UPLJIxTeTbAjg-41" value="" style="shape=partialRectangle;collapsible=0;dropTarget=0;pointerEvents=0;fillColor=none;top=0;left=0;bottom=0;right=0;points=[[0,0.5],[1,0.5]];portConstraint=eastwest;" parent="x_EVsy3UPLJIxTeTbAjg-40" vertex="1">
                    <mxGeometry width="290" height="40" as="geometry"/>
                </mxCell>
                <mxCell id="x_EVsy3UPLJIxTeTbAjg-42" value="0" style="shape=partialRectangle;html=1;whiteSpace=wrap;connectable=0;overflow=hidden;fillColor=#d5e8d4;top=0;left=0;bottom=0;right=0;pointerEvents=1;strokeColor=#82b366;" parent="x_EVsy3UPLJIxTeTbAjg-41" vertex="1">
                    <mxGeometry width="73" height="40" as="geometry">
                        <mxRectangle width="73" height="40" as="alternateBounds"/>
                    </mxGeometry>
                </mxCell>
                <mxCell id="x_EVsy3UPLJIxTeTbAjg-43" value="5" style="shape=partialRectangle;html=1;whiteSpace=wrap;connectable=0;overflow=hidden;fillColor=#d5e8d4;top=0;left=0;bottom=0;right=0;pointerEvents=1;strokeColor=#82b366;" parent="x_EVsy3UPLJIxTeTbAjg-41" vertex="1">
                    <mxGeometry x="73" width="72" height="40" as="geometry">
                        <mxRectangle width="72" height="40" as="alternateBounds"/>
                    </mxGeometry>
                </mxCell>
                <mxCell id="x_EVsy3UPLJIxTeTbAjg-44" value="15" style="shape=partialRectangle;html=1;whiteSpace=wrap;connectable=0;overflow=hidden;fillColor=#d5e8d4;top=0;left=0;bottom=0;right=0;pointerEvents=1;strokeColor=#82b366;" parent="x_EVsy3UPLJIxTeTbAjg-41" vertex="1">
                    <mxGeometry x="145" width="73" height="40" as="geometry">
                        <mxRectangle width="73" height="40" as="alternateBounds"/>
                    </mxGeometry>
                </mxCell>
                <mxCell id="x_EVsy3UPLJIxTeTbAjg-45" value="" style="shape=partialRectangle;html=1;whiteSpace=wrap;connectable=0;overflow=hidden;fillColor=none;top=0;left=0;bottom=0;right=0;pointerEvents=1;" parent="x_EVsy3UPLJIxTeTbAjg-41" vertex="1">
                    <mxGeometry x="218" width="72" height="40" as="geometry">
                        <mxRectangle width="72" height="40" as="alternateBounds"/>
                    </mxGeometry>
                </mxCell>
                <mxCell id="x_EVsy3UPLJIxTeTbAjg-46" value="" style="shape=table;startSize=0;container=1;collapsible=0;childLayout=tableLayout;fillColor=#dae8fc;strokeColor=#6c8ebf;" parent="I79QwC35za2RviMJt-uJ-1" vertex="1">
                    <mxGeometry x="239" y="640" width="290" height="40" as="geometry"/>
                </mxCell>
                <mxCell id="x_EVsy3UPLJIxTeTbAjg-47" value="" style="shape=partialRectangle;collapsible=0;dropTarget=0;pointerEvents=0;fillColor=none;top=0;left=0;bottom=0;right=0;points=[[0,0.5],[1,0.5]];portConstraint=eastwest;" parent="x_EVsy3UPLJIxTeTbAjg-46" vertex="1">
                    <mxGeometry width="290" height="40" as="geometry"/>
                </mxCell>
                <mxCell id="x_EVsy3UPLJIxTeTbAjg-48" value="10" style="shape=partialRectangle;html=1;whiteSpace=wrap;connectable=0;overflow=hidden;fillColor=none;top=0;left=0;bottom=0;right=0;pointerEvents=1;" parent="x_EVsy3UPLJIxTeTbAjg-47" vertex="1">
                    <mxGeometry width="73" height="40" as="geometry">
                        <mxRectangle width="73" height="40" as="alternateBounds"/>
                    </mxGeometry>
                </mxCell>
                <mxCell id="x_EVsy3UPLJIxTeTbAjg-49" value="20" style="shape=partialRectangle;html=1;whiteSpace=wrap;connectable=0;overflow=hidden;fillColor=none;top=0;left=0;bottom=0;right=0;pointerEvents=1;" parent="x_EVsy3UPLJIxTeTbAjg-47" vertex="1">
                    <mxGeometry x="73" width="72" height="40" as="geometry">
                        <mxRectangle width="72" height="40" as="alternateBounds"/>
                    </mxGeometry>
                </mxCell>
                <mxCell id="x_EVsy3UPLJIxTeTbAjg-50" value="30" style="shape=partialRectangle;html=1;whiteSpace=wrap;connectable=0;overflow=hidden;fillColor=none;top=0;left=0;bottom=0;right=0;pointerEvents=1;" parent="x_EVsy3UPLJIxTeTbAjg-47" vertex="1">
                    <mxGeometry x="145" width="73" height="40" as="geometry">
                        <mxRectangle width="73" height="40" as="alternateBounds"/>
                    </mxGeometry>
                </mxCell>
                <mxCell id="x_EVsy3UPLJIxTeTbAjg-51" value="" style="shape=partialRectangle;html=1;whiteSpace=wrap;connectable=0;overflow=hidden;fillColor=none;top=0;left=0;bottom=0;right=0;pointerEvents=1;" parent="x_EVsy3UPLJIxTeTbAjg-47" vertex="1">
                    <mxGeometry x="218" width="72" height="40" as="geometry">
                        <mxRectangle width="72" height="40" as="alternateBounds"/>
                    </mxGeometry>
                </mxCell>
                <mxCell id="x_EVsy3UPLJIxTeTbAjg-52" value="Required Meeting Rooms" style="rounded=0;whiteSpace=wrap;html=1;dashed=1;fillColor=none;fontStyle=1" parent="I79QwC35za2RviMJt-uJ-1" vertex="1">
                    <mxGeometry x="80" y="480" width="100" height="40" as="geometry"/>
                </mxCell>
                <mxCell id="x_EVsy3UPLJIxTeTbAjg-53" value="0" style="text;html=1;strokeColor=none;fillColor=none;align=center;verticalAlign=middle;whiteSpace=wrap;rounded=0;dashed=1;" parent="I79QwC35za2RviMJt-uJ-1" vertex="1">
                    <mxGeometry x="240" y="480" width="60" height="30" as="geometry"/>
                </mxCell>
                <mxCell id="x_EVsy3UPLJIxTeTbAjg-54" value="P1" style="text;html=1;strokeColor=#82b366;fillColor=#d5e8d4;align=center;verticalAlign=middle;whiteSpace=wrap;rounded=0;" parent="I79QwC35za2RviMJt-uJ-1" vertex="1">
                    <mxGeometry x="240" y="530" width="60" height="30" as="geometry"/>
                </mxCell>
                <mxCell id="x_EVsy3UPLJIxTeTbAjg-55" value="P2" style="text;html=1;strokeColor=#6c8ebf;fillColor=#dae8fc;align=center;verticalAlign=middle;whiteSpace=wrap;rounded=0;" parent="I79QwC35za2RviMJt-uJ-1" vertex="1">
                    <mxGeometry x="240" y="690" width="60" height="30" as="geometry"/>
                </mxCell>
                <mxCell id="x_EVsy3UPLJIxTeTbAjg-56" value="Max No Of Meeting Rooms So far" style="rounded=0;whiteSpace=wrap;html=1;dashed=1;fillColor=none;fontStyle=1" parent="I79QwC35za2RviMJt-uJ-1" vertex="1">
                    <mxGeometry x="80" y="430" width="100" height="40" as="geometry"/>
                </mxCell>
                <mxCell id="x_EVsy3UPLJIxTeTbAjg-57" value="0" style="text;html=1;strokeColor=none;fillColor=none;align=center;verticalAlign=middle;whiteSpace=wrap;rounded=0;dashed=1;" parent="I79QwC35za2RviMJt-uJ-1" vertex="1">
                    <mxGeometry x="240" y="430" width="60" height="30" as="geometry"/>
                </mxCell>
                <mxCell id="x_EVsy3UPLJIxTeTbAjg-58" value="Algo&amp;nbsp;" style="text;html=1;strokeColor=#d6b656;fillColor=#fff2cc;align=center;verticalAlign=middle;whiteSpace=wrap;rounded=0;" parent="I79QwC35za2RviMJt-uJ-1" vertex="1">
                    <mxGeometry x="90" y="790" width="60" height="30" as="geometry"/>
                </mxCell>
                <mxCell id="x_EVsy3UPLJIxTeTbAjg-59" value="The smaller between P1 and P2 moves ;&amp;nbsp;" style="text;html=1;strokeColor=#d6b656;fillColor=#fff2cc;align=left;verticalAlign=middle;whiteSpace=wrap;rounded=0;" parent="I79QwC35za2RviMJt-uJ-1" vertex="1">
                    <mxGeometry x="239" y="790" width="231" height="30" as="geometry"/>
                </mxCell>
                <mxCell id="x_EVsy3UPLJIxTeTbAjg-60" value="If P1 moves we &lt;b&gt;increment&lt;/b&gt; the Required no of Rooms&amp;nbsp;" style="text;html=1;strokeColor=#d6b656;fillColor=#fff2cc;align=left;verticalAlign=middle;whiteSpace=wrap;rounded=0;" parent="I79QwC35za2RviMJt-uJ-1" vertex="1">
                    <mxGeometry x="240" y="830" width="340" height="30" as="geometry"/>
                </mxCell>
                <mxCell id="x_EVsy3UPLJIxTeTbAjg-61" value="If P2 moves we &lt;b&gt;decrement&lt;/b&gt; the Required no of Rooms&amp;nbsp;" style="text;html=1;strokeColor=#d6b656;fillColor=#fff2cc;align=left;verticalAlign=middle;whiteSpace=wrap;rounded=0;" parent="I79QwC35za2RviMJt-uJ-1" vertex="1">
                    <mxGeometry x="240" y="870" width="340" height="30" as="geometry"/>
                </mxCell>
                <mxCell id="x_EVsy3UPLJIxTeTbAjg-62" value="The max value held by&amp;nbsp; Required No if rooms is our answer" style="text;html=1;strokeColor=#d6b656;fillColor=#fff2cc;align=left;verticalAlign=middle;whiteSpace=wrap;rounded=0;" parent="I79QwC35za2RviMJt-uJ-1" vertex="1">
                    <mxGeometry x="240" y="910" width="340" height="30" as="geometry"/>
                </mxCell>
                <mxCell id="x_EVsy3UPLJIxTeTbAjg-63" value="Sorted Start Times" style="text;html=1;strokeColor=none;fillColor=none;align=center;verticalAlign=middle;whiteSpace=wrap;rounded=0;dashed=1;" parent="I79QwC35za2RviMJt-uJ-1" vertex="1">
                    <mxGeometry x="90" y="1190" width="140" height="30" as="geometry"/>
                </mxCell>
                <mxCell id="x_EVsy3UPLJIxTeTbAjg-64" value="Sorted End Times" style="text;html=1;strokeColor=none;fillColor=none;align=center;verticalAlign=middle;whiteSpace=wrap;rounded=0;dashed=1;" parent="I79QwC35za2RviMJt-uJ-1" vertex="1">
                    <mxGeometry x="90" y="1265" width="140" height="30" as="geometry"/>
                </mxCell>
                <mxCell id="x_EVsy3UPLJIxTeTbAjg-65" value="" style="shape=table;startSize=0;container=1;collapsible=0;childLayout=tableLayout;fillColor=none;" parent="I79QwC35za2RviMJt-uJ-1" vertex="1">
                    <mxGeometry x="260" y="1185" width="290" height="40" as="geometry"/>
                </mxCell>
                <mxCell id="x_EVsy3UPLJIxTeTbAjg-66" value="" style="shape=partialRectangle;collapsible=0;dropTarget=0;pointerEvents=0;fillColor=none;top=0;left=0;bottom=0;right=0;points=[[0,0.5],[1,0.5]];portConstraint=eastwest;" parent="x_EVsy3UPLJIxTeTbAjg-65" vertex="1">
                    <mxGeometry width="290" height="40" as="geometry"/>
                </mxCell>
                <mxCell id="x_EVsy3UPLJIxTeTbAjg-67" value="0" style="shape=partialRectangle;html=1;whiteSpace=wrap;connectable=0;overflow=hidden;fillColor=#d5e8d4;top=0;left=0;bottom=0;right=0;pointerEvents=1;strokeColor=#82b366;" parent="x_EVsy3UPLJIxTeTbAjg-66" vertex="1">
                    <mxGeometry width="73" height="40" as="geometry">
                        <mxRectangle width="73" height="40" as="alternateBounds"/>
                    </mxGeometry>
                </mxCell>
                <mxCell id="x_EVsy3UPLJIxTeTbAjg-68" value="5" style="shape=partialRectangle;html=1;whiteSpace=wrap;connectable=0;overflow=hidden;fillColor=#d5e8d4;top=0;left=0;bottom=0;right=0;pointerEvents=1;strokeColor=#82b366;" parent="x_EVsy3UPLJIxTeTbAjg-66" vertex="1">
                    <mxGeometry x="73" width="72" height="40" as="geometry">
                        <mxRectangle width="72" height="40" as="alternateBounds"/>
                    </mxGeometry>
                </mxCell>
                <mxCell id="x_EVsy3UPLJIxTeTbAjg-69" value="15" style="shape=partialRectangle;html=1;whiteSpace=wrap;connectable=0;overflow=hidden;fillColor=#d5e8d4;top=0;left=0;bottom=0;right=0;pointerEvents=1;strokeColor=#82b366;" parent="x_EVsy3UPLJIxTeTbAjg-66" vertex="1">
                    <mxGeometry x="145" width="73" height="40" as="geometry">
                        <mxRectangle width="73" height="40" as="alternateBounds"/>
                    </mxGeometry>
                </mxCell>
                <mxCell id="x_EVsy3UPLJIxTeTbAjg-70" value="" style="shape=partialRectangle;html=1;whiteSpace=wrap;connectable=0;overflow=hidden;fillColor=none;top=0;left=0;bottom=0;right=0;pointerEvents=1;" parent="x_EVsy3UPLJIxTeTbAjg-66" vertex="1">
                    <mxGeometry x="218" width="72" height="40" as="geometry">
                        <mxRectangle width="72" height="40" as="alternateBounds"/>
                    </mxGeometry>
                </mxCell>
                <mxCell id="x_EVsy3UPLJIxTeTbAjg-71" value="" style="shape=table;startSize=0;container=1;collapsible=0;childLayout=tableLayout;fillColor=#dae8fc;strokeColor=#6c8ebf;" parent="I79QwC35za2RviMJt-uJ-1" vertex="1">
                    <mxGeometry x="259" y="1260" width="290" height="40" as="geometry"/>
                </mxCell>
                <mxCell id="x_EVsy3UPLJIxTeTbAjg-72" value="" style="shape=partialRectangle;collapsible=0;dropTarget=0;pointerEvents=0;fillColor=none;top=0;left=0;bottom=0;right=0;points=[[0,0.5],[1,0.5]];portConstraint=eastwest;" parent="x_EVsy3UPLJIxTeTbAjg-71" vertex="1">
                    <mxGeometry width="290" height="40" as="geometry"/>
                </mxCell>
                <mxCell id="x_EVsy3UPLJIxTeTbAjg-73" value="10" style="shape=partialRectangle;html=1;whiteSpace=wrap;connectable=0;overflow=hidden;fillColor=none;top=0;left=0;bottom=0;right=0;pointerEvents=1;" parent="x_EVsy3UPLJIxTeTbAjg-72" vertex="1">
                    <mxGeometry width="73" height="40" as="geometry">
                        <mxRectangle width="73" height="40" as="alternateBounds"/>
                    </mxGeometry>
                </mxCell>
                <mxCell id="x_EVsy3UPLJIxTeTbAjg-74" value="20" style="shape=partialRectangle;html=1;whiteSpace=wrap;connectable=0;overflow=hidden;fillColor=none;top=0;left=0;bottom=0;right=0;pointerEvents=1;" parent="x_EVsy3UPLJIxTeTbAjg-72" vertex="1">
                    <mxGeometry x="73" width="72" height="40" as="geometry">
                        <mxRectangle width="72" height="40" as="alternateBounds"/>
                    </mxGeometry>
                </mxCell>
                <mxCell id="x_EVsy3UPLJIxTeTbAjg-75" value="30" style="shape=partialRectangle;html=1;whiteSpace=wrap;connectable=0;overflow=hidden;fillColor=none;top=0;left=0;bottom=0;right=0;pointerEvents=1;" parent="x_EVsy3UPLJIxTeTbAjg-72" vertex="1">
                    <mxGeometry x="145" width="73" height="40" as="geometry">
                        <mxRectangle width="73" height="40" as="alternateBounds"/>
                    </mxGeometry>
                </mxCell>
                <mxCell id="x_EVsy3UPLJIxTeTbAjg-76" value="" style="shape=partialRectangle;html=1;whiteSpace=wrap;connectable=0;overflow=hidden;fillColor=none;top=0;left=0;bottom=0;right=0;pointerEvents=1;" parent="x_EVsy3UPLJIxTeTbAjg-72" vertex="1">
                    <mxGeometry x="218" width="72" height="40" as="geometry">
                        <mxRectangle width="72" height="40" as="alternateBounds"/>
                    </mxGeometry>
                </mxCell>
                <mxCell id="x_EVsy3UPLJIxTeTbAjg-77" value="Required Meeting Rooms" style="rounded=0;whiteSpace=wrap;html=1;dashed=1;fillColor=none;fontStyle=1" parent="I79QwC35za2RviMJt-uJ-1" vertex="1">
                    <mxGeometry x="100" y="1100" width="100" height="40" as="geometry"/>
                </mxCell>
                <mxCell id="x_EVsy3UPLJIxTeTbAjg-78" value="0" style="text;html=1;strokeColor=none;fillColor=none;align=center;verticalAlign=middle;whiteSpace=wrap;rounded=0;dashed=1;" parent="I79QwC35za2RviMJt-uJ-1" vertex="1">
                    <mxGeometry x="260" y="1100" width="60" height="30" as="geometry"/>
                </mxCell>
                <mxCell id="x_EVsy3UPLJIxTeTbAjg-79" value="P1" style="text;html=1;strokeColor=#82b366;fillColor=#d5e8d4;align=center;verticalAlign=middle;whiteSpace=wrap;rounded=0;" parent="I79QwC35za2RviMJt-uJ-1" vertex="1">
                    <mxGeometry x="260" y="1150" width="60" height="30" as="geometry"/>
                </mxCell>
                <mxCell id="x_EVsy3UPLJIxTeTbAjg-80" value="P2" style="text;html=1;strokeColor=#6c8ebf;fillColor=#dae8fc;align=center;verticalAlign=middle;whiteSpace=wrap;rounded=0;" parent="I79QwC35za2RviMJt-uJ-1" vertex="1">
                    <mxGeometry x="260" y="1310" width="60" height="30" as="geometry"/>
                </mxCell>
                <mxCell id="x_EVsy3UPLJIxTeTbAjg-81" value="Max No Of Meeting Rooms So far" style="rounded=0;whiteSpace=wrap;html=1;dashed=1;fillColor=none;fontStyle=1" parent="I79QwC35za2RviMJt-uJ-1" vertex="1">
                    <mxGeometry x="100" y="1050" width="100" height="40" as="geometry"/>
                </mxCell>
                <mxCell id="x_EVsy3UPLJIxTeTbAjg-82" value="0" style="text;html=1;strokeColor=none;fillColor=none;align=center;verticalAlign=middle;whiteSpace=wrap;rounded=0;dashed=1;" parent="I79QwC35za2RviMJt-uJ-1" vertex="1">
                    <mxGeometry x="260" y="1050" width="60" height="30" as="geometry"/>
                </mxCell>
                <mxCell id="x_EVsy3UPLJIxTeTbAjg-83" value="Sorted Start Times" style="text;html=1;strokeColor=none;fillColor=none;align=center;verticalAlign=middle;whiteSpace=wrap;rounded=0;dashed=1;" parent="I79QwC35za2RviMJt-uJ-1" vertex="1">
                    <mxGeometry x="100" y="1510" width="140" height="30" as="geometry"/>
                </mxCell>
                <mxCell id="x_EVsy3UPLJIxTeTbAjg-84" value="Sorted End Times" style="text;html=1;strokeColor=none;fillColor=none;align=center;verticalAlign=middle;whiteSpace=wrap;rounded=0;dashed=1;" parent="I79QwC35za2RviMJt-uJ-1" vertex="1">
                    <mxGeometry x="100" y="1585" width="140" height="30" as="geometry"/>
                </mxCell>
                <mxCell id="x_EVsy3UPLJIxTeTbAjg-85" value="" style="shape=table;startSize=0;container=1;collapsible=0;childLayout=tableLayout;fillColor=none;" parent="I79QwC35za2RviMJt-uJ-1" vertex="1">
                    <mxGeometry x="270" y="1505" width="290" height="40" as="geometry"/>
                </mxCell>
                <mxCell id="x_EVsy3UPLJIxTeTbAjg-86" value="" style="shape=partialRectangle;collapsible=0;dropTarget=0;pointerEvents=0;fillColor=none;top=0;left=0;bottom=0;right=0;points=[[0,0.5],[1,0.5]];portConstraint=eastwest;" parent="x_EVsy3UPLJIxTeTbAjg-85" vertex="1">
                    <mxGeometry width="290" height="40" as="geometry"/>
                </mxCell>
                <mxCell id="x_EVsy3UPLJIxTeTbAjg-87" value="0" style="shape=partialRectangle;html=1;whiteSpace=wrap;connectable=0;overflow=hidden;fillColor=#d5e8d4;top=0;left=0;bottom=0;right=0;pointerEvents=1;strokeColor=#82b366;" parent="x_EVsy3UPLJIxTeTbAjg-86" vertex="1">
                    <mxGeometry width="73" height="40" as="geometry">
                        <mxRectangle width="73" height="40" as="alternateBounds"/>
                    </mxGeometry>
                </mxCell>
                <mxCell id="x_EVsy3UPLJIxTeTbAjg-88" value="5" style="shape=partialRectangle;html=1;whiteSpace=wrap;connectable=0;overflow=hidden;fillColor=#d5e8d4;top=0;left=0;bottom=0;right=0;pointerEvents=1;strokeColor=#82b366;" parent="x_EVsy3UPLJIxTeTbAjg-86" vertex="1">
                    <mxGeometry x="73" width="72" height="40" as="geometry">
                        <mxRectangle width="72" height="40" as="alternateBounds"/>
                    </mxGeometry>
                </mxCell>
                <mxCell id="x_EVsy3UPLJIxTeTbAjg-89" value="15" style="shape=partialRectangle;html=1;whiteSpace=wrap;connectable=0;overflow=hidden;fillColor=#d5e8d4;top=0;left=0;bottom=0;right=0;pointerEvents=1;strokeColor=#82b366;" parent="x_EVsy3UPLJIxTeTbAjg-86" vertex="1">
                    <mxGeometry x="145" width="73" height="40" as="geometry">
                        <mxRectangle width="73" height="40" as="alternateBounds"/>
                    </mxGeometry>
                </mxCell>
                <mxCell id="x_EVsy3UPLJIxTeTbAjg-90" value="" style="shape=partialRectangle;html=1;whiteSpace=wrap;connectable=0;overflow=hidden;fillColor=none;top=0;left=0;bottom=0;right=0;pointerEvents=1;" parent="x_EVsy3UPLJIxTeTbAjg-86" vertex="1">
                    <mxGeometry x="218" width="72" height="40" as="geometry">
                        <mxRectangle width="72" height="40" as="alternateBounds"/>
                    </mxGeometry>
                </mxCell>
                <mxCell id="x_EVsy3UPLJIxTeTbAjg-91" value="" style="shape=table;startSize=0;container=1;collapsible=0;childLayout=tableLayout;fillColor=#dae8fc;strokeColor=#6c8ebf;" parent="I79QwC35za2RviMJt-uJ-1" vertex="1">
                    <mxGeometry x="269" y="1580" width="290" height="40" as="geometry"/>
                </mxCell>
                <mxCell id="x_EVsy3UPLJIxTeTbAjg-92" value="" style="shape=partialRectangle;collapsible=0;dropTarget=0;pointerEvents=0;fillColor=none;top=0;left=0;bottom=0;right=0;points=[[0,0.5],[1,0.5]];portConstraint=eastwest;" parent="x_EVsy3UPLJIxTeTbAjg-91" vertex="1">
                    <mxGeometry width="290" height="40" as="geometry"/>
                </mxCell>
                <mxCell id="x_EVsy3UPLJIxTeTbAjg-93" value="10" style="shape=partialRectangle;html=1;whiteSpace=wrap;connectable=0;overflow=hidden;fillColor=none;top=0;left=0;bottom=0;right=0;pointerEvents=1;" parent="x_EVsy3UPLJIxTeTbAjg-92" vertex="1">
                    <mxGeometry width="73" height="40" as="geometry">
                        <mxRectangle width="73" height="40" as="alternateBounds"/>
                    </mxGeometry>
                </mxCell>
                <mxCell id="x_EVsy3UPLJIxTeTbAjg-94" value="20" style="shape=partialRectangle;html=1;whiteSpace=wrap;connectable=0;overflow=hidden;fillColor=none;top=0;left=0;bottom=0;right=0;pointerEvents=1;" parent="x_EVsy3UPLJIxTeTbAjg-92" vertex="1">
                    <mxGeometry x="73" width="72" height="40" as="geometry">
                        <mxRectangle width="72" height="40" as="alternateBounds"/>
                    </mxGeometry>
                </mxCell>
                <mxCell id="x_EVsy3UPLJIxTeTbAjg-95" value="30" style="shape=partialRectangle;html=1;whiteSpace=wrap;connectable=0;overflow=hidden;fillColor=none;top=0;left=0;bottom=0;right=0;pointerEvents=1;" parent="x_EVsy3UPLJIxTeTbAjg-92" vertex="1">
                    <mxGeometry x="145" width="73" height="40" as="geometry">
                        <mxRectangle width="73" height="40" as="alternateBounds"/>
                    </mxGeometry>
                </mxCell>
                <mxCell id="x_EVsy3UPLJIxTeTbAjg-96" value="" style="shape=partialRectangle;html=1;whiteSpace=wrap;connectable=0;overflow=hidden;fillColor=none;top=0;left=0;bottom=0;right=0;pointerEvents=1;" parent="x_EVsy3UPLJIxTeTbAjg-92" vertex="1">
                    <mxGeometry x="218" width="72" height="40" as="geometry">
                        <mxRectangle width="72" height="40" as="alternateBounds"/>
                    </mxGeometry>
                </mxCell>
                <mxCell id="x_EVsy3UPLJIxTeTbAjg-97" value="Required Meeting Rooms" style="rounded=0;whiteSpace=wrap;html=1;dashed=1;fillColor=none;fontStyle=1" parent="I79QwC35za2RviMJt-uJ-1" vertex="1">
                    <mxGeometry x="110" y="1420" width="100" height="40" as="geometry"/>
                </mxCell>
                <mxCell id="x_EVsy3UPLJIxTeTbAjg-98" value="1" style="text;html=1;strokeColor=#d6b656;fillColor=#fff2cc;align=center;verticalAlign=middle;whiteSpace=wrap;rounded=0;dashed=1;" parent="I79QwC35za2RviMJt-uJ-1" vertex="1">
                    <mxGeometry x="270" y="1420" width="60" height="30" as="geometry"/>
                </mxCell>
                <mxCell id="x_EVsy3UPLJIxTeTbAjg-99" value="P1" style="text;html=1;strokeColor=#82b366;fillColor=#d5e8d4;align=center;verticalAlign=middle;whiteSpace=wrap;rounded=0;" parent="I79QwC35za2RviMJt-uJ-1" vertex="1">
                    <mxGeometry x="340" y="1475" width="60" height="30" as="geometry"/>
                </mxCell>
                <mxCell id="x_EVsy3UPLJIxTeTbAjg-100" value="P2" style="text;html=1;strokeColor=#6c8ebf;fillColor=#dae8fc;align=center;verticalAlign=middle;whiteSpace=wrap;rounded=0;" parent="I79QwC35za2RviMJt-uJ-1" vertex="1">
                    <mxGeometry x="270" y="1630" width="60" height="30" as="geometry"/>
                </mxCell>
                <mxCell id="x_EVsy3UPLJIxTeTbAjg-101" value="Max No Of Meeting Rooms So far" style="rounded=0;whiteSpace=wrap;html=1;dashed=1;fillColor=none;fontStyle=1" parent="I79QwC35za2RviMJt-uJ-1" vertex="1">
                    <mxGeometry x="110" y="1370" width="100" height="40" as="geometry"/>
                </mxCell>
                <mxCell id="x_EVsy3UPLJIxTeTbAjg-102" value="1" style="text;html=1;strokeColor=none;fillColor=none;align=center;verticalAlign=middle;whiteSpace=wrap;rounded=0;dashed=1;" parent="I79QwC35za2RviMJt-uJ-1" vertex="1">
                    <mxGeometry x="270" y="1370" width="60" height="30" as="geometry"/>
                </mxCell>
                <mxCell id="x_EVsy3UPLJIxTeTbAjg-103" value="Sorted Start Times" style="text;html=1;strokeColor=none;fillColor=none;align=center;verticalAlign=middle;whiteSpace=wrap;rounded=0;dashed=1;" parent="I79QwC35za2RviMJt-uJ-1" vertex="1">
                    <mxGeometry x="620" y="1510" width="140" height="30" as="geometry"/>
                </mxCell>
                <mxCell id="x_EVsy3UPLJIxTeTbAjg-104" value="Sorted End Times" style="text;html=1;strokeColor=none;fillColor=none;align=center;verticalAlign=middle;whiteSpace=wrap;rounded=0;dashed=1;" parent="I79QwC35za2RviMJt-uJ-1" vertex="1">
                    <mxGeometry x="620" y="1585" width="140" height="30" as="geometry"/>
                </mxCell>
                <mxCell id="x_EVsy3UPLJIxTeTbAjg-105" value="" style="shape=table;startSize=0;container=1;collapsible=0;childLayout=tableLayout;fillColor=none;" parent="I79QwC35za2RviMJt-uJ-1" vertex="1">
                    <mxGeometry x="790" y="1505" width="290" height="40" as="geometry"/>
                </mxCell>
                <mxCell id="x_EVsy3UPLJIxTeTbAjg-106" value="" style="shape=partialRectangle;collapsible=0;dropTarget=0;pointerEvents=0;fillColor=none;top=0;left=0;bottom=0;right=0;points=[[0,0.5],[1,0.5]];portConstraint=eastwest;" parent="x_EVsy3UPLJIxTeTbAjg-105" vertex="1">
                    <mxGeometry width="290" height="40" as="geometry"/>
                </mxCell>
                <mxCell id="x_EVsy3UPLJIxTeTbAjg-107" value="0" style="shape=partialRectangle;html=1;whiteSpace=wrap;connectable=0;overflow=hidden;fillColor=#d5e8d4;top=0;left=0;bottom=0;right=0;pointerEvents=1;strokeColor=#82b366;" parent="x_EVsy3UPLJIxTeTbAjg-106" vertex="1">
                    <mxGeometry width="73" height="40" as="geometry">
                        <mxRectangle width="73" height="40" as="alternateBounds"/>
                    </mxGeometry>
                </mxCell>
                <mxCell id="x_EVsy3UPLJIxTeTbAjg-108" value="5" style="shape=partialRectangle;html=1;whiteSpace=wrap;connectable=0;overflow=hidden;fillColor=#d5e8d4;top=0;left=0;bottom=0;right=0;pointerEvents=1;strokeColor=#82b366;" parent="x_EVsy3UPLJIxTeTbAjg-106" vertex="1">
                    <mxGeometry x="73" width="72" height="40" as="geometry">
                        <mxRectangle width="72" height="40" as="alternateBounds"/>
                    </mxGeometry>
                </mxCell>
                <mxCell id="x_EVsy3UPLJIxTeTbAjg-109" value="15" style="shape=partialRectangle;html=1;whiteSpace=wrap;connectable=0;overflow=hidden;fillColor=#d5e8d4;top=0;left=0;bottom=0;right=0;pointerEvents=1;strokeColor=#82b366;" parent="x_EVsy3UPLJIxTeTbAjg-106" vertex="1">
                    <mxGeometry x="145" width="73" height="40" as="geometry">
                        <mxRectangle width="73" height="40" as="alternateBounds"/>
                    </mxGeometry>
                </mxCell>
                <mxCell id="x_EVsy3UPLJIxTeTbAjg-110" value="" style="shape=partialRectangle;html=1;whiteSpace=wrap;connectable=0;overflow=hidden;fillColor=none;top=0;left=0;bottom=0;right=0;pointerEvents=1;" parent="x_EVsy3UPLJIxTeTbAjg-106" vertex="1">
                    <mxGeometry x="218" width="72" height="40" as="geometry">
                        <mxRectangle width="72" height="40" as="alternateBounds"/>
                    </mxGeometry>
                </mxCell>
                <mxCell id="x_EVsy3UPLJIxTeTbAjg-111" value="" style="shape=table;startSize=0;container=1;collapsible=0;childLayout=tableLayout;fillColor=#dae8fc;strokeColor=#6c8ebf;" parent="I79QwC35za2RviMJt-uJ-1" vertex="1">
                    <mxGeometry x="789" y="1580" width="290" height="40" as="geometry"/>
                </mxCell>
                <mxCell id="x_EVsy3UPLJIxTeTbAjg-112" value="" style="shape=partialRectangle;collapsible=0;dropTarget=0;pointerEvents=0;fillColor=none;top=0;left=0;bottom=0;right=0;points=[[0,0.5],[1,0.5]];portConstraint=eastwest;" parent="x_EVsy3UPLJIxTeTbAjg-111" vertex="1">
                    <mxGeometry width="290" height="40" as="geometry"/>
                </mxCell>
                <mxCell id="x_EVsy3UPLJIxTeTbAjg-113" value="10" style="shape=partialRectangle;html=1;whiteSpace=wrap;connectable=0;overflow=hidden;fillColor=none;top=0;left=0;bottom=0;right=0;pointerEvents=1;" parent="x_EVsy3UPLJIxTeTbAjg-112" vertex="1">
                    <mxGeometry width="73" height="40" as="geometry">
                        <mxRectangle width="73" height="40" as="alternateBounds"/>
                    </mxGeometry>
                </mxCell>
                <mxCell id="x_EVsy3UPLJIxTeTbAjg-114" value="20" style="shape=partialRectangle;html=1;whiteSpace=wrap;connectable=0;overflow=hidden;fillColor=none;top=0;left=0;bottom=0;right=0;pointerEvents=1;" parent="x_EVsy3UPLJIxTeTbAjg-112" vertex="1">
                    <mxGeometry x="73" width="72" height="40" as="geometry">
                        <mxRectangle width="72" height="40" as="alternateBounds"/>
                    </mxGeometry>
                </mxCell>
                <mxCell id="x_EVsy3UPLJIxTeTbAjg-115" value="30" style="shape=partialRectangle;html=1;whiteSpace=wrap;connectable=0;overflow=hidden;fillColor=none;top=0;left=0;bottom=0;right=0;pointerEvents=1;" parent="x_EVsy3UPLJIxTeTbAjg-112" vertex="1">
                    <mxGeometry x="145" width="73" height="40" as="geometry">
                        <mxRectangle width="73" height="40" as="alternateBounds"/>
                    </mxGeometry>
                </mxCell>
                <mxCell id="x_EVsy3UPLJIxTeTbAjg-116" value="" style="shape=partialRectangle;html=1;whiteSpace=wrap;connectable=0;overflow=hidden;fillColor=none;top=0;left=0;bottom=0;right=0;pointerEvents=1;" parent="x_EVsy3UPLJIxTeTbAjg-112" vertex="1">
                    <mxGeometry x="218" width="72" height="40" as="geometry">
                        <mxRectangle width="72" height="40" as="alternateBounds"/>
                    </mxGeometry>
                </mxCell>
                <mxCell id="x_EVsy3UPLJIxTeTbAjg-117" value="Required Meeting Rooms" style="rounded=0;whiteSpace=wrap;html=1;dashed=1;fillColor=none;fontStyle=1" parent="I79QwC35za2RviMJt-uJ-1" vertex="1">
                    <mxGeometry x="630" y="1420" width="100" height="40" as="geometry"/>
                </mxCell>
                <mxCell id="x_EVsy3UPLJIxTeTbAjg-118" value="2" style="text;html=1;strokeColor=#d6b656;fillColor=#fff2cc;align=center;verticalAlign=middle;whiteSpace=wrap;rounded=0;dashed=1;" parent="I79QwC35za2RviMJt-uJ-1" vertex="1">
                    <mxGeometry x="790" y="1420" width="60" height="30" as="geometry"/>
                </mxCell>
                <mxCell id="x_EVsy3UPLJIxTeTbAjg-119" value="P1" style="text;html=1;strokeColor=#82b366;fillColor=#d5e8d4;align=center;verticalAlign=middle;whiteSpace=wrap;rounded=0;" parent="I79QwC35za2RviMJt-uJ-1" vertex="1">
                    <mxGeometry x="940" y="1475" width="60" height="30" as="geometry"/>
                </mxCell>
                <mxCell id="x_EVsy3UPLJIxTeTbAjg-120" value="P2" style="text;html=1;strokeColor=#6c8ebf;fillColor=#dae8fc;align=center;verticalAlign=middle;whiteSpace=wrap;rounded=0;" parent="I79QwC35za2RviMJt-uJ-1" vertex="1">
                    <mxGeometry x="790" y="1630" width="60" height="30" as="geometry"/>
                </mxCell>
                <mxCell id="x_EVsy3UPLJIxTeTbAjg-121" value="Max No Of Meeting Rooms So far" style="rounded=0;whiteSpace=wrap;html=1;dashed=1;fillColor=none;fontStyle=1" parent="I79QwC35za2RviMJt-uJ-1" vertex="1">
                    <mxGeometry x="630" y="1370" width="100" height="40" as="geometry"/>
                </mxCell>
                <mxCell id="x_EVsy3UPLJIxTeTbAjg-122" value="2" style="text;html=1;strokeColor=none;fillColor=none;align=center;verticalAlign=middle;whiteSpace=wrap;rounded=0;dashed=1;" parent="I79QwC35za2RviMJt-uJ-1" vertex="1">
                    <mxGeometry x="790" y="1370" width="60" height="30" as="geometry"/>
                </mxCell>
                <mxCell id="x_EVsy3UPLJIxTeTbAjg-123" value="Sorted Start Times" style="text;html=1;strokeColor=none;fillColor=none;align=center;verticalAlign=middle;whiteSpace=wrap;rounded=0;dashed=1;" parent="I79QwC35za2RviMJt-uJ-1" vertex="1">
                    <mxGeometry x="110" y="1830" width="140" height="30" as="geometry"/>
                </mxCell>
                <mxCell id="x_EVsy3UPLJIxTeTbAjg-124" value="Sorted End Times" style="text;html=1;strokeColor=none;fillColor=none;align=center;verticalAlign=middle;whiteSpace=wrap;rounded=0;dashed=1;" parent="I79QwC35za2RviMJt-uJ-1" vertex="1">
                    <mxGeometry x="110" y="1905" width="140" height="30" as="geometry"/>
                </mxCell>
                <mxCell id="x_EVsy3UPLJIxTeTbAjg-125" value="" style="shape=table;startSize=0;container=1;collapsible=0;childLayout=tableLayout;fillColor=none;" parent="I79QwC35za2RviMJt-uJ-1" vertex="1">
                    <mxGeometry x="280" y="1825" width="290" height="40" as="geometry"/>
                </mxCell>
                <mxCell id="x_EVsy3UPLJIxTeTbAjg-126" value="" style="shape=partialRectangle;collapsible=0;dropTarget=0;pointerEvents=0;fillColor=none;top=0;left=0;bottom=0;right=0;points=[[0,0.5],[1,0.5]];portConstraint=eastwest;" parent="x_EVsy3UPLJIxTeTbAjg-125" vertex="1">
                    <mxGeometry width="290" height="40" as="geometry"/>
                </mxCell>
                <mxCell id="x_EVsy3UPLJIxTeTbAjg-127" value="0" style="shape=partialRectangle;html=1;whiteSpace=wrap;connectable=0;overflow=hidden;fillColor=#d5e8d4;top=0;left=0;bottom=0;right=0;pointerEvents=1;strokeColor=#82b366;" parent="x_EVsy3UPLJIxTeTbAjg-126" vertex="1">
                    <mxGeometry width="73" height="40" as="geometry">
                        <mxRectangle width="73" height="40" as="alternateBounds"/>
                    </mxGeometry>
                </mxCell>
                <mxCell id="x_EVsy3UPLJIxTeTbAjg-128" value="5" style="shape=partialRectangle;html=1;whiteSpace=wrap;connectable=0;overflow=hidden;fillColor=#d5e8d4;top=0;left=0;bottom=0;right=0;pointerEvents=1;strokeColor=#82b366;" parent="x_EVsy3UPLJIxTeTbAjg-126" vertex="1">
                    <mxGeometry x="73" width="72" height="40" as="geometry">
                        <mxRectangle width="72" height="40" as="alternateBounds"/>
                    </mxGeometry>
                </mxCell>
                <mxCell id="x_EVsy3UPLJIxTeTbAjg-129" value="15" style="shape=partialRectangle;html=1;whiteSpace=wrap;connectable=0;overflow=hidden;fillColor=#d5e8d4;top=0;left=0;bottom=0;right=0;pointerEvents=1;strokeColor=#82b366;" parent="x_EVsy3UPLJIxTeTbAjg-126" vertex="1">
                    <mxGeometry x="145" width="73" height="40" as="geometry">
                        <mxRectangle width="73" height="40" as="alternateBounds"/>
                    </mxGeometry>
                </mxCell>
                <mxCell id="x_EVsy3UPLJIxTeTbAjg-130" value="" style="shape=partialRectangle;html=1;whiteSpace=wrap;connectable=0;overflow=hidden;fillColor=none;top=0;left=0;bottom=0;right=0;pointerEvents=1;" parent="x_EVsy3UPLJIxTeTbAjg-126" vertex="1">
                    <mxGeometry x="218" width="72" height="40" as="geometry">
                        <mxRectangle width="72" height="40" as="alternateBounds"/>
                    </mxGeometry>
                </mxCell>
                <mxCell id="x_EVsy3UPLJIxTeTbAjg-131" value="" style="shape=table;startSize=0;container=1;collapsible=0;childLayout=tableLayout;fillColor=#dae8fc;strokeColor=#6c8ebf;" parent="I79QwC35za2RviMJt-uJ-1" vertex="1">
                    <mxGeometry x="279" y="1900" width="290" height="40" as="geometry"/>
                </mxCell>
                <mxCell id="x_EVsy3UPLJIxTeTbAjg-132" value="" style="shape=partialRectangle;collapsible=0;dropTarget=0;pointerEvents=0;fillColor=none;top=0;left=0;bottom=0;right=0;points=[[0,0.5],[1,0.5]];portConstraint=eastwest;" parent="x_EVsy3UPLJIxTeTbAjg-131" vertex="1">
                    <mxGeometry width="290" height="40" as="geometry"/>
                </mxCell>
                <mxCell id="x_EVsy3UPLJIxTeTbAjg-133" value="10" style="shape=partialRectangle;html=1;whiteSpace=wrap;connectable=0;overflow=hidden;fillColor=none;top=0;left=0;bottom=0;right=0;pointerEvents=1;" parent="x_EVsy3UPLJIxTeTbAjg-132" vertex="1">
                    <mxGeometry width="73" height="40" as="geometry">
                        <mxRectangle width="73" height="40" as="alternateBounds"/>
                    </mxGeometry>
                </mxCell>
                <mxCell id="x_EVsy3UPLJIxTeTbAjg-134" value="20" style="shape=partialRectangle;html=1;whiteSpace=wrap;connectable=0;overflow=hidden;fillColor=none;top=0;left=0;bottom=0;right=0;pointerEvents=1;" parent="x_EVsy3UPLJIxTeTbAjg-132" vertex="1">
                    <mxGeometry x="73" width="72" height="40" as="geometry">
                        <mxRectangle width="72" height="40" as="alternateBounds"/>
                    </mxGeometry>
                </mxCell>
                <mxCell id="x_EVsy3UPLJIxTeTbAjg-135" value="30" style="shape=partialRectangle;html=1;whiteSpace=wrap;connectable=0;overflow=hidden;fillColor=none;top=0;left=0;bottom=0;right=0;pointerEvents=1;" parent="x_EVsy3UPLJIxTeTbAjg-132" vertex="1">
                    <mxGeometry x="145" width="73" height="40" as="geometry">
                        <mxRectangle width="73" height="40" as="alternateBounds"/>
                    </mxGeometry>
                </mxCell>
                <mxCell id="x_EVsy3UPLJIxTeTbAjg-136" value="" style="shape=partialRectangle;html=1;whiteSpace=wrap;connectable=0;overflow=hidden;fillColor=none;top=0;left=0;bottom=0;right=0;pointerEvents=1;" parent="x_EVsy3UPLJIxTeTbAjg-132" vertex="1">
                    <mxGeometry x="218" width="72" height="40" as="geometry">
                        <mxRectangle width="72" height="40" as="alternateBounds"/>
                    </mxGeometry>
                </mxCell>
                <mxCell id="x_EVsy3UPLJIxTeTbAjg-137" value="Required Meeting Rooms" style="rounded=0;whiteSpace=wrap;html=1;dashed=1;fillColor=none;fontStyle=1" parent="I79QwC35za2RviMJt-uJ-1" vertex="1">
                    <mxGeometry x="120" y="1740" width="100" height="40" as="geometry"/>
                </mxCell>
                <mxCell id="x_EVsy3UPLJIxTeTbAjg-138" value="1" style="text;html=1;strokeColor=none;fillColor=none;align=center;verticalAlign=middle;whiteSpace=wrap;rounded=0;dashed=1;" parent="I79QwC35za2RviMJt-uJ-1" vertex="1">
                    <mxGeometry x="280" y="1740" width="60" height="30" as="geometry"/>
                </mxCell>
                <mxCell id="x_EVsy3UPLJIxTeTbAjg-139" value="P1" style="text;html=1;strokeColor=#82b366;fillColor=#d5e8d4;align=center;verticalAlign=middle;whiteSpace=wrap;rounded=0;" parent="I79QwC35za2RviMJt-uJ-1" vertex="1">
                    <mxGeometry x="430" y="1795" width="60" height="30" as="geometry"/>
                </mxCell>
                <mxCell id="x_EVsy3UPLJIxTeTbAjg-140" value="P2" style="text;html=1;strokeColor=#6c8ebf;fillColor=#dae8fc;align=center;verticalAlign=middle;whiteSpace=wrap;rounded=0;" parent="I79QwC35za2RviMJt-uJ-1" vertex="1">
                    <mxGeometry x="360" y="1950" width="60" height="30" as="geometry"/>
                </mxCell>
                <mxCell id="x_EVsy3UPLJIxTeTbAjg-141" value="Max No Of Meeting Rooms So far" style="rounded=0;whiteSpace=wrap;html=1;dashed=1;fillColor=none;fontStyle=1" parent="I79QwC35za2RviMJt-uJ-1" vertex="1">
                    <mxGeometry x="120" y="1690" width="100" height="40" as="geometry"/>
                </mxCell>
                <mxCell id="x_EVsy3UPLJIxTeTbAjg-142" value="2" style="text;html=1;strokeColor=none;fillColor=none;align=center;verticalAlign=middle;whiteSpace=wrap;rounded=0;dashed=1;" parent="I79QwC35za2RviMJt-uJ-1" vertex="1">
                    <mxGeometry x="280" y="1690" width="60" height="30" as="geometry"/>
                </mxCell>
                <mxCell id="x_EVsy3UPLJIxTeTbAjg-143" value="Sorted Start Times" style="text;html=1;strokeColor=none;fillColor=none;align=center;verticalAlign=middle;whiteSpace=wrap;rounded=0;dashed=1;" parent="I79QwC35za2RviMJt-uJ-1" vertex="1">
                    <mxGeometry x="680" y="1830" width="140" height="30" as="geometry"/>
                </mxCell>
                <mxCell id="x_EVsy3UPLJIxTeTbAjg-144" value="Sorted End Times" style="text;html=1;strokeColor=none;fillColor=none;align=center;verticalAlign=middle;whiteSpace=wrap;rounded=0;dashed=1;" parent="I79QwC35za2RviMJt-uJ-1" vertex="1">
                    <mxGeometry x="680" y="1905" width="140" height="30" as="geometry"/>
                </mxCell>
                <mxCell id="x_EVsy3UPLJIxTeTbAjg-145" value="" style="shape=table;startSize=0;container=1;collapsible=0;childLayout=tableLayout;fillColor=none;" parent="I79QwC35za2RviMJt-uJ-1" vertex="1">
                    <mxGeometry x="850" y="1825" width="290" height="40" as="geometry"/>
                </mxCell>
                <mxCell id="x_EVsy3UPLJIxTeTbAjg-146" value="" style="shape=partialRectangle;collapsible=0;dropTarget=0;pointerEvents=0;fillColor=none;top=0;left=0;bottom=0;right=0;points=[[0,0.5],[1,0.5]];portConstraint=eastwest;" parent="x_EVsy3UPLJIxTeTbAjg-145" vertex="1">
                    <mxGeometry width="290" height="40" as="geometry"/>
                </mxCell>
                <mxCell id="x_EVsy3UPLJIxTeTbAjg-147" value="0" style="shape=partialRectangle;html=1;whiteSpace=wrap;connectable=0;overflow=hidden;fillColor=#d5e8d4;top=0;left=0;bottom=0;right=0;pointerEvents=1;strokeColor=#82b366;" parent="x_EVsy3UPLJIxTeTbAjg-146" vertex="1">
                    <mxGeometry width="73" height="40" as="geometry">
                        <mxRectangle width="73" height="40" as="alternateBounds"/>
                    </mxGeometry>
                </mxCell>
                <mxCell id="x_EVsy3UPLJIxTeTbAjg-148" value="5" style="shape=partialRectangle;html=1;whiteSpace=wrap;connectable=0;overflow=hidden;fillColor=#d5e8d4;top=0;left=0;bottom=0;right=0;pointerEvents=1;strokeColor=#82b366;" parent="x_EVsy3UPLJIxTeTbAjg-146" vertex="1">
                    <mxGeometry x="73" width="72" height="40" as="geometry">
                        <mxRectangle width="72" height="40" as="alternateBounds"/>
                    </mxGeometry>
                </mxCell>
                <mxCell id="x_EVsy3UPLJIxTeTbAjg-149" value="15" style="shape=partialRectangle;html=1;whiteSpace=wrap;connectable=0;overflow=hidden;fillColor=#d5e8d4;top=0;left=0;bottom=0;right=0;pointerEvents=1;strokeColor=#82b366;" parent="x_EVsy3UPLJIxTeTbAjg-146" vertex="1">
                    <mxGeometry x="145" width="73" height="40" as="geometry">
                        <mxRectangle width="73" height="40" as="alternateBounds"/>
                    </mxGeometry>
                </mxCell>
                <mxCell id="x_EVsy3UPLJIxTeTbAjg-150" value="" style="shape=partialRectangle;html=1;whiteSpace=wrap;connectable=0;overflow=hidden;fillColor=none;top=0;left=0;bottom=0;right=0;pointerEvents=1;" parent="x_EVsy3UPLJIxTeTbAjg-146" vertex="1">
                    <mxGeometry x="218" width="72" height="40" as="geometry">
                        <mxRectangle width="72" height="40" as="alternateBounds"/>
                    </mxGeometry>
                </mxCell>
                <mxCell id="x_EVsy3UPLJIxTeTbAjg-151" value="" style="shape=table;startSize=0;container=1;collapsible=0;childLayout=tableLayout;fillColor=#dae8fc;strokeColor=#6c8ebf;" parent="I79QwC35za2RviMJt-uJ-1" vertex="1">
                    <mxGeometry x="849" y="1900" width="290" height="40" as="geometry"/>
                </mxCell>
                <mxCell id="x_EVsy3UPLJIxTeTbAjg-152" value="" style="shape=partialRectangle;collapsible=0;dropTarget=0;pointerEvents=0;fillColor=none;top=0;left=0;bottom=0;right=0;points=[[0,0.5],[1,0.5]];portConstraint=eastwest;" parent="x_EVsy3UPLJIxTeTbAjg-151" vertex="1">
                    <mxGeometry width="290" height="40" as="geometry"/>
                </mxCell>
                <mxCell id="x_EVsy3UPLJIxTeTbAjg-153" value="10" style="shape=partialRectangle;html=1;whiteSpace=wrap;connectable=0;overflow=hidden;fillColor=none;top=0;left=0;bottom=0;right=0;pointerEvents=1;" parent="x_EVsy3UPLJIxTeTbAjg-152" vertex="1">
                    <mxGeometry width="73" height="40" as="geometry">
                        <mxRectangle width="73" height="40" as="alternateBounds"/>
                    </mxGeometry>
                </mxCell>
                <mxCell id="x_EVsy3UPLJIxTeTbAjg-154" value="20" style="shape=partialRectangle;html=1;whiteSpace=wrap;connectable=0;overflow=hidden;fillColor=none;top=0;left=0;bottom=0;right=0;pointerEvents=1;" parent="x_EVsy3UPLJIxTeTbAjg-152" vertex="1">
                    <mxGeometry x="73" width="72" height="40" as="geometry">
                        <mxRectangle width="72" height="40" as="alternateBounds"/>
                    </mxGeometry>
                </mxCell>
                <mxCell id="x_EVsy3UPLJIxTeTbAjg-155" value="30" style="shape=partialRectangle;html=1;whiteSpace=wrap;connectable=0;overflow=hidden;fillColor=none;top=0;left=0;bottom=0;right=0;pointerEvents=1;" parent="x_EVsy3UPLJIxTeTbAjg-152" vertex="1">
                    <mxGeometry x="145" width="73" height="40" as="geometry">
                        <mxRectangle width="73" height="40" as="alternateBounds"/>
                    </mxGeometry>
                </mxCell>
                <mxCell id="x_EVsy3UPLJIxTeTbAjg-156" value="" style="shape=partialRectangle;html=1;whiteSpace=wrap;connectable=0;overflow=hidden;fillColor=none;top=0;left=0;bottom=0;right=0;pointerEvents=1;" parent="x_EVsy3UPLJIxTeTbAjg-152" vertex="1">
                    <mxGeometry x="218" width="72" height="40" as="geometry">
                        <mxRectangle width="72" height="40" as="alternateBounds"/>
                    </mxGeometry>
                </mxCell>
                <mxCell id="x_EVsy3UPLJIxTeTbAjg-157" value="Required Meeting Rooms" style="rounded=0;whiteSpace=wrap;html=1;dashed=1;fillColor=none;fontStyle=1" parent="I79QwC35za2RviMJt-uJ-1" vertex="1">
                    <mxGeometry x="690" y="1740" width="100" height="40" as="geometry"/>
                </mxCell>
                <mxCell id="x_EVsy3UPLJIxTeTbAjg-158" value="2" style="text;html=1;strokeColor=#d6b656;fillColor=#fff2cc;align=center;verticalAlign=middle;whiteSpace=wrap;rounded=0;dashed=1;" parent="I79QwC35za2RviMJt-uJ-1" vertex="1">
                    <mxGeometry x="850" y="1740" width="60" height="30" as="geometry"/>
                </mxCell>
                <mxCell id="x_EVsy3UPLJIxTeTbAjg-159" value="P1" style="text;html=1;strokeColor=#82b366;fillColor=#d5e8d4;align=center;verticalAlign=middle;whiteSpace=wrap;rounded=0;" parent="I79QwC35za2RviMJt-uJ-1" vertex="1">
                    <mxGeometry x="1070" y="1795" width="60" height="30" as="geometry"/>
                </mxCell>
                <mxCell id="x_EVsy3UPLJIxTeTbAjg-160" value="P2" style="text;html=1;strokeColor=#6c8ebf;fillColor=#dae8fc;align=center;verticalAlign=middle;whiteSpace=wrap;rounded=0;" parent="I79QwC35za2RviMJt-uJ-1" vertex="1">
                    <mxGeometry x="930" y="1950" width="60" height="30" as="geometry"/>
                </mxCell>
                <mxCell id="x_EVsy3UPLJIxTeTbAjg-161" value="Max No Of Meeting Rooms So far" style="rounded=0;whiteSpace=wrap;html=1;dashed=1;fillColor=none;fontStyle=1" parent="I79QwC35za2RviMJt-uJ-1" vertex="1">
                    <mxGeometry x="690" y="1690" width="100" height="40" as="geometry"/>
                </mxCell>
                <mxCell id="x_EVsy3UPLJIxTeTbAjg-162" value="2" style="text;html=1;strokeColor=none;fillColor=none;align=center;verticalAlign=middle;whiteSpace=wrap;rounded=0;dashed=1;" parent="I79QwC35za2RviMJt-uJ-1" vertex="1">
                    <mxGeometry x="850" y="1690" width="60" height="30" as="geometry"/>
                </mxCell>
                <mxCell id="x_EVsy3UPLJIxTeTbAjg-164" value="Sorted Start Times" style="text;html=1;strokeColor=none;fillColor=none;align=center;verticalAlign=middle;whiteSpace=wrap;rounded=0;dashed=1;" parent="I79QwC35za2RviMJt-uJ-1" vertex="1">
                    <mxGeometry x="124.5" y="2160" width="140" height="30" as="geometry"/>
                </mxCell>
                <mxCell id="x_EVsy3UPLJIxTeTbAjg-165" value="Sorted End Times" style="text;html=1;strokeColor=none;fillColor=none;align=center;verticalAlign=middle;whiteSpace=wrap;rounded=0;dashed=1;" parent="I79QwC35za2RviMJt-uJ-1" vertex="1">
                    <mxGeometry x="124.5" y="2235" width="140" height="30" as="geometry"/>
                </mxCell>
                <mxCell id="x_EVsy3UPLJIxTeTbAjg-166" value="" style="shape=table;startSize=0;container=1;collapsible=0;childLayout=tableLayout;fillColor=none;" parent="I79QwC35za2RviMJt-uJ-1" vertex="1">
                    <mxGeometry x="294.5" y="2155" width="290" height="40" as="geometry"/>
                </mxCell>
                <mxCell id="x_EVsy3UPLJIxTeTbAjg-167" value="" style="shape=partialRectangle;collapsible=0;dropTarget=0;pointerEvents=0;fillColor=none;top=0;left=0;bottom=0;right=0;points=[[0,0.5],[1,0.5]];portConstraint=eastwest;" parent="x_EVsy3UPLJIxTeTbAjg-166" vertex="1">
                    <mxGeometry width="290" height="40" as="geometry"/>
                </mxCell>
                <mxCell id="x_EVsy3UPLJIxTeTbAjg-168" value="0" style="shape=partialRectangle;html=1;whiteSpace=wrap;connectable=0;overflow=hidden;fillColor=#d5e8d4;top=0;left=0;bottom=0;right=0;pointerEvents=1;strokeColor=#82b366;" parent="x_EVsy3UPLJIxTeTbAjg-167" vertex="1">
                    <mxGeometry width="73" height="40" as="geometry">
                        <mxRectangle width="73" height="40" as="alternateBounds"/>
                    </mxGeometry>
                </mxCell>
                <mxCell id="x_EVsy3UPLJIxTeTbAjg-169" value="5" style="shape=partialRectangle;html=1;whiteSpace=wrap;connectable=0;overflow=hidden;fillColor=#d5e8d4;top=0;left=0;bottom=0;right=0;pointerEvents=1;strokeColor=#82b366;" parent="x_EVsy3UPLJIxTeTbAjg-167" vertex="1">
                    <mxGeometry x="73" width="72" height="40" as="geometry">
                        <mxRectangle width="72" height="40" as="alternateBounds"/>
                    </mxGeometry>
                </mxCell>
                <mxCell id="x_EVsy3UPLJIxTeTbAjg-170" value="15" style="shape=partialRectangle;html=1;whiteSpace=wrap;connectable=0;overflow=hidden;fillColor=#d5e8d4;top=0;left=0;bottom=0;right=0;pointerEvents=1;strokeColor=#82b366;" parent="x_EVsy3UPLJIxTeTbAjg-167" vertex="1">
                    <mxGeometry x="145" width="73" height="40" as="geometry">
                        <mxRectangle width="73" height="40" as="alternateBounds"/>
                    </mxGeometry>
                </mxCell>
                <mxCell id="x_EVsy3UPLJIxTeTbAjg-171" value="" style="shape=partialRectangle;html=1;whiteSpace=wrap;connectable=0;overflow=hidden;fillColor=none;top=0;left=0;bottom=0;right=0;pointerEvents=1;" parent="x_EVsy3UPLJIxTeTbAjg-167" vertex="1">
                    <mxGeometry x="218" width="72" height="40" as="geometry">
                        <mxRectangle width="72" height="40" as="alternateBounds"/>
                    </mxGeometry>
                </mxCell>
                <mxCell id="x_EVsy3UPLJIxTeTbAjg-172" value="" style="shape=table;startSize=0;container=1;collapsible=0;childLayout=tableLayout;fillColor=#dae8fc;strokeColor=#6c8ebf;" parent="I79QwC35za2RviMJt-uJ-1" vertex="1">
                    <mxGeometry x="293.5" y="2230" width="290" height="40" as="geometry"/>
                </mxCell>
                <mxCell id="x_EVsy3UPLJIxTeTbAjg-173" value="" style="shape=partialRectangle;collapsible=0;dropTarget=0;pointerEvents=0;fillColor=none;top=0;left=0;bottom=0;right=0;points=[[0,0.5],[1,0.5]];portConstraint=eastwest;" parent="x_EVsy3UPLJIxTeTbAjg-172" vertex="1">
                    <mxGeometry width="290" height="40" as="geometry"/>
                </mxCell>
                <mxCell id="x_EVsy3UPLJIxTeTbAjg-174" value="10" style="shape=partialRectangle;html=1;whiteSpace=wrap;connectable=0;overflow=hidden;fillColor=none;top=0;left=0;bottom=0;right=0;pointerEvents=1;" parent="x_EVsy3UPLJIxTeTbAjg-173" vertex="1">
                    <mxGeometry width="73" height="40" as="geometry">
                        <mxRectangle width="73" height="40" as="alternateBounds"/>
                    </mxGeometry>
                </mxCell>
                <mxCell id="x_EVsy3UPLJIxTeTbAjg-175" value="20" style="shape=partialRectangle;html=1;whiteSpace=wrap;connectable=0;overflow=hidden;fillColor=none;top=0;left=0;bottom=0;right=0;pointerEvents=1;" parent="x_EVsy3UPLJIxTeTbAjg-173" vertex="1">
                    <mxGeometry x="73" width="72" height="40" as="geometry">
                        <mxRectangle width="72" height="40" as="alternateBounds"/>
                    </mxGeometry>
                </mxCell>
                <mxCell id="x_EVsy3UPLJIxTeTbAjg-176" value="30" style="shape=partialRectangle;html=1;whiteSpace=wrap;connectable=0;overflow=hidden;fillColor=none;top=0;left=0;bottom=0;right=0;pointerEvents=1;" parent="x_EVsy3UPLJIxTeTbAjg-173" vertex="1">
                    <mxGeometry x="145" width="73" height="40" as="geometry">
                        <mxRectangle width="73" height="40" as="alternateBounds"/>
                    </mxGeometry>
                </mxCell>
                <mxCell id="x_EVsy3UPLJIxTeTbAjg-177" value="" style="shape=partialRectangle;html=1;whiteSpace=wrap;connectable=0;overflow=hidden;fillColor=none;top=0;left=0;bottom=0;right=0;pointerEvents=1;" parent="x_EVsy3UPLJIxTeTbAjg-173" vertex="1">
                    <mxGeometry x="218" width="72" height="40" as="geometry">
                        <mxRectangle width="72" height="40" as="alternateBounds"/>
                    </mxGeometry>
                </mxCell>
                <mxCell id="x_EVsy3UPLJIxTeTbAjg-178" value="Required Meeting Rooms" style="rounded=0;whiteSpace=wrap;html=1;dashed=1;fillColor=none;fontStyle=1" parent="I79QwC35za2RviMJt-uJ-1" vertex="1">
                    <mxGeometry x="134.5" y="2070" width="100" height="40" as="geometry"/>
                </mxCell>
                <mxCell id="x_EVsy3UPLJIxTeTbAjg-179" value="1" style="text;html=1;strokeColor=none;fillColor=none;align=center;verticalAlign=middle;whiteSpace=wrap;rounded=0;dashed=1;" parent="I79QwC35za2RviMJt-uJ-1" vertex="1">
                    <mxGeometry x="294.5" y="2070" width="60" height="30" as="geometry"/>
                </mxCell>
                <mxCell id="x_EVsy3UPLJIxTeTbAjg-180" value="P1" style="text;html=1;strokeColor=#82b366;fillColor=#d5e8d4;align=center;verticalAlign=middle;whiteSpace=wrap;rounded=0;" parent="I79QwC35za2RviMJt-uJ-1" vertex="1">
                    <mxGeometry x="514.5" y="2125" width="60" height="30" as="geometry"/>
                </mxCell>
                <mxCell id="x_EVsy3UPLJIxTeTbAjg-181" value="P2" style="text;html=1;strokeColor=#6c8ebf;fillColor=#dae8fc;align=center;verticalAlign=middle;whiteSpace=wrap;rounded=0;" parent="I79QwC35za2RviMJt-uJ-1" vertex="1">
                    <mxGeometry x="450" y="2280" width="60" height="30" as="geometry"/>
                </mxCell>
                <mxCell id="x_EVsy3UPLJIxTeTbAjg-182" value="Max No Of Meeting Rooms So far" style="rounded=0;whiteSpace=wrap;html=1;dashed=1;fillColor=none;fontStyle=1" parent="I79QwC35za2RviMJt-uJ-1" vertex="1">
                    <mxGeometry x="134.5" y="2020" width="100" height="40" as="geometry"/>
                </mxCell>
                <mxCell id="x_EVsy3UPLJIxTeTbAjg-183" value="2" style="text;html=1;strokeColor=none;fillColor=none;align=center;verticalAlign=middle;whiteSpace=wrap;rounded=0;dashed=1;" parent="I79QwC35za2RviMJt-uJ-1" vertex="1">
                    <mxGeometry x="294.5" y="2020" width="60" height="30" as="geometry"/>
                </mxCell>
                <mxCell id="x_EVsy3UPLJIxTeTbAjg-184" value="Sorted Start Times" style="text;html=1;strokeColor=none;fillColor=none;align=center;verticalAlign=middle;whiteSpace=wrap;rounded=0;dashed=1;" parent="I79QwC35za2RviMJt-uJ-1" vertex="1">
                    <mxGeometry x="710" y="2170" width="140" height="30" as="geometry"/>
                </mxCell>
                <mxCell id="x_EVsy3UPLJIxTeTbAjg-185" value="Sorted End Times" style="text;html=1;strokeColor=none;fillColor=none;align=center;verticalAlign=middle;whiteSpace=wrap;rounded=0;dashed=1;" parent="I79QwC35za2RviMJt-uJ-1" vertex="1">
                    <mxGeometry x="710" y="2245" width="140" height="30" as="geometry"/>
                </mxCell>
                <mxCell id="x_EVsy3UPLJIxTeTbAjg-186" value="" style="shape=table;startSize=0;container=1;collapsible=0;childLayout=tableLayout;fillColor=none;" parent="I79QwC35za2RviMJt-uJ-1" vertex="1">
                    <mxGeometry x="880" y="2165" width="290" height="40" as="geometry"/>
                </mxCell>
                <mxCell id="x_EVsy3UPLJIxTeTbAjg-187" value="" style="shape=partialRectangle;collapsible=0;dropTarget=0;pointerEvents=0;fillColor=none;top=0;left=0;bottom=0;right=0;points=[[0,0.5],[1,0.5]];portConstraint=eastwest;" parent="x_EVsy3UPLJIxTeTbAjg-186" vertex="1">
                    <mxGeometry width="290" height="40" as="geometry"/>
                </mxCell>
                <mxCell id="x_EVsy3UPLJIxTeTbAjg-188" value="0" style="shape=partialRectangle;html=1;whiteSpace=wrap;connectable=0;overflow=hidden;fillColor=#d5e8d4;top=0;left=0;bottom=0;right=0;pointerEvents=1;strokeColor=#82b366;" parent="x_EVsy3UPLJIxTeTbAjg-187" vertex="1">
                    <mxGeometry width="73" height="40" as="geometry">
                        <mxRectangle width="73" height="40" as="alternateBounds"/>
                    </mxGeometry>
                </mxCell>
                <mxCell id="x_EVsy3UPLJIxTeTbAjg-189" value="5" style="shape=partialRectangle;html=1;whiteSpace=wrap;connectable=0;overflow=hidden;fillColor=#d5e8d4;top=0;left=0;bottom=0;right=0;pointerEvents=1;strokeColor=#82b366;" parent="x_EVsy3UPLJIxTeTbAjg-187" vertex="1">
                    <mxGeometry x="73" width="72" height="40" as="geometry">
                        <mxRectangle width="72" height="40" as="alternateBounds"/>
                    </mxGeometry>
                </mxCell>
                <mxCell id="x_EVsy3UPLJIxTeTbAjg-190" value="15" style="shape=partialRectangle;html=1;whiteSpace=wrap;connectable=0;overflow=hidden;fillColor=#d5e8d4;top=0;left=0;bottom=0;right=0;pointerEvents=1;strokeColor=#82b366;" parent="x_EVsy3UPLJIxTeTbAjg-187" vertex="1">
                    <mxGeometry x="145" width="73" height="40" as="geometry">
                        <mxRectangle width="73" height="40" as="alternateBounds"/>
                    </mxGeometry>
                </mxCell>
                <mxCell id="x_EVsy3UPLJIxTeTbAjg-191" value="" style="shape=partialRectangle;html=1;whiteSpace=wrap;connectable=0;overflow=hidden;fillColor=none;top=0;left=0;bottom=0;right=0;pointerEvents=1;" parent="x_EVsy3UPLJIxTeTbAjg-187" vertex="1">
                    <mxGeometry x="218" width="72" height="40" as="geometry">
                        <mxRectangle width="72" height="40" as="alternateBounds"/>
                    </mxGeometry>
                </mxCell>
                <mxCell id="x_EVsy3UPLJIxTeTbAjg-192" value="" style="shape=table;startSize=0;container=1;collapsible=0;childLayout=tableLayout;fillColor=#dae8fc;strokeColor=#6c8ebf;" parent="I79QwC35za2RviMJt-uJ-1" vertex="1">
                    <mxGeometry x="879" y="2240" width="290" height="40" as="geometry"/>
                </mxCell>
                <mxCell id="x_EVsy3UPLJIxTeTbAjg-193" value="" style="shape=partialRectangle;collapsible=0;dropTarget=0;pointerEvents=0;fillColor=none;top=0;left=0;bottom=0;right=0;points=[[0,0.5],[1,0.5]];portConstraint=eastwest;" parent="x_EVsy3UPLJIxTeTbAjg-192" vertex="1">
                    <mxGeometry width="290" height="40" as="geometry"/>
                </mxCell>
                <mxCell id="x_EVsy3UPLJIxTeTbAjg-194" value="10" style="shape=partialRectangle;html=1;whiteSpace=wrap;connectable=0;overflow=hidden;fillColor=none;top=0;left=0;bottom=0;right=0;pointerEvents=1;" parent="x_EVsy3UPLJIxTeTbAjg-193" vertex="1">
                    <mxGeometry width="73" height="40" as="geometry">
                        <mxRectangle width="73" height="40" as="alternateBounds"/>
                    </mxGeometry>
                </mxCell>
                <mxCell id="x_EVsy3UPLJIxTeTbAjg-195" value="20" style="shape=partialRectangle;html=1;whiteSpace=wrap;connectable=0;overflow=hidden;fillColor=none;top=0;left=0;bottom=0;right=0;pointerEvents=1;" parent="x_EVsy3UPLJIxTeTbAjg-193" vertex="1">
                    <mxGeometry x="73" width="72" height="40" as="geometry">
                        <mxRectangle width="72" height="40" as="alternateBounds"/>
                    </mxGeometry>
                </mxCell>
                <mxCell id="x_EVsy3UPLJIxTeTbAjg-196" value="30" style="shape=partialRectangle;html=1;whiteSpace=wrap;connectable=0;overflow=hidden;fillColor=none;top=0;left=0;bottom=0;right=0;pointerEvents=1;" parent="x_EVsy3UPLJIxTeTbAjg-193" vertex="1">
                    <mxGeometry x="145" width="73" height="40" as="geometry">
                        <mxRectangle width="73" height="40" as="alternateBounds"/>
                    </mxGeometry>
                </mxCell>
                <mxCell id="x_EVsy3UPLJIxTeTbAjg-197" value="" style="shape=partialRectangle;html=1;whiteSpace=wrap;connectable=0;overflow=hidden;fillColor=none;top=0;left=0;bottom=0;right=0;pointerEvents=1;" parent="x_EVsy3UPLJIxTeTbAjg-193" vertex="1">
                    <mxGeometry x="218" width="72" height="40" as="geometry">
                        <mxRectangle width="72" height="40" as="alternateBounds"/>
                    </mxGeometry>
                </mxCell>
                <mxCell id="x_EVsy3UPLJIxTeTbAjg-198" value="Required Meeting Rooms" style="rounded=0;whiteSpace=wrap;html=1;dashed=1;fillColor=none;fontStyle=1" parent="I79QwC35za2RviMJt-uJ-1" vertex="1">
                    <mxGeometry x="720" y="2080" width="100" height="40" as="geometry"/>
                </mxCell>
                <mxCell id="x_EVsy3UPLJIxTeTbAjg-199" value="0" style="text;html=1;strokeColor=none;fillColor=none;align=center;verticalAlign=middle;whiteSpace=wrap;rounded=0;dashed=1;" parent="I79QwC35za2RviMJt-uJ-1" vertex="1">
                    <mxGeometry x="880" y="2080" width="60" height="30" as="geometry"/>
                </mxCell>
                <mxCell id="x_EVsy3UPLJIxTeTbAjg-200" value="P1" style="text;html=1;strokeColor=#82b366;fillColor=#d5e8d4;align=center;verticalAlign=middle;whiteSpace=wrap;rounded=0;" parent="I79QwC35za2RviMJt-uJ-1" vertex="1">
                    <mxGeometry x="1100" y="2135" width="60" height="30" as="geometry"/>
                </mxCell>
                <mxCell id="x_EVsy3UPLJIxTeTbAjg-201" value="P2" style="text;html=1;strokeColor=#6c8ebf;fillColor=#dae8fc;align=center;verticalAlign=middle;whiteSpace=wrap;rounded=0;" parent="I79QwC35za2RviMJt-uJ-1" vertex="1">
                    <mxGeometry x="1109" y="2290" width="60" height="30" as="geometry"/>
                </mxCell>
                <mxCell id="x_EVsy3UPLJIxTeTbAjg-202" value="Max No Of Meeting Rooms So far" style="rounded=0;whiteSpace=wrap;html=1;dashed=1;fillColor=none;fontStyle=1" parent="I79QwC35za2RviMJt-uJ-1" vertex="1">
                    <mxGeometry x="720" y="2030" width="100" height="40" as="geometry"/>
                </mxCell>
                <mxCell id="x_EVsy3UPLJIxTeTbAjg-203" value="2" style="text;html=1;strokeColor=#d6b656;fillColor=#fff2cc;align=center;verticalAlign=middle;whiteSpace=wrap;rounded=0;dashed=1;" parent="I79QwC35za2RviMJt-uJ-1" vertex="1">
                    <mxGeometry x="880" y="2030" width="60" height="30" as="geometry"/>
                </mxCell>
                <mxCell id="x_EVsy3UPLJIxTeTbAjg-204" value="Value increses since P1 moved" style="text;html=1;strokeColor=#d6b656;fillColor=#fff2cc;align=center;verticalAlign=middle;whiteSpace=wrap;rounded=0;" parent="I79QwC35za2RviMJt-uJ-1" vertex="1">
                    <mxGeometry x="334" y="1420" width="176" height="30" as="geometry"/>
                </mxCell>
                <mxCell id="x_EVsy3UPLJIxTeTbAjg-205" value="Value increses since P1 moved" style="text;html=1;strokeColor=#d6b656;fillColor=#fff2cc;align=center;verticalAlign=middle;whiteSpace=wrap;rounded=0;" parent="I79QwC35za2RviMJt-uJ-1" vertex="1">
                    <mxGeometry x="850" y="1420" width="176" height="30" as="geometry"/>
                </mxCell>
                <mxCell id="x_EVsy3UPLJIxTeTbAjg-206" value="Value decreases since P2 moved" style="text;html=1;strokeColor=#d6b656;fillColor=#fff2cc;align=center;verticalAlign=middle;whiteSpace=wrap;rounded=0;" parent="I79QwC35za2RviMJt-uJ-1" vertex="1">
                    <mxGeometry x="330" y="1745" width="176" height="30" as="geometry"/>
                </mxCell>
                <mxCell id="x_EVsy3UPLJIxTeTbAjg-207" value="Value increase since P1 moved" style="text;html=1;strokeColor=#d6b656;fillColor=#fff2cc;align=center;verticalAlign=middle;whiteSpace=wrap;rounded=0;" parent="I79QwC35za2RviMJt-uJ-1" vertex="1">
                    <mxGeometry x="903" y="1740" width="176" height="30" as="geometry"/>
                </mxCell>
                <mxCell id="x_EVsy3UPLJIxTeTbAjg-208" value="Value decreases since P2 moved" style="text;html=1;strokeColor=#d6b656;fillColor=#fff2cc;align=center;verticalAlign=middle;whiteSpace=wrap;rounded=0;" parent="I79QwC35za2RviMJt-uJ-1" vertex="1">
                    <mxGeometry x="338.5" y="2075" width="176" height="30" as="geometry"/>
                </mxCell>
                <mxCell id="x_EVsy3UPLJIxTeTbAjg-209" value="Value decreases since P2 moved" style="text;html=1;strokeColor=#d6b656;fillColor=#fff2cc;align=center;verticalAlign=middle;whiteSpace=wrap;rounded=0;" parent="I79QwC35za2RviMJt-uJ-1" vertex="1">
                    <mxGeometry x="940" y="2080" width="176" height="30" as="geometry"/>
                </mxCell>
            </root>
        </mxGraphModel>
    </diagram>
    <diagram id="fNA8n87gV7ngR3BZ6kk4" name="Page-4">
        <mxGraphModel dx="450" dy="203" grid="1" gridSize="10" guides="1" tooltips="1" connect="1" arrows="1" fold="1" page="1" pageScale="1" pageWidth="827" pageHeight="1169" math="0" shadow="0">
            <root>
                <mxCell id="PfdLQCuPAp_lfZB6UdkM-0"/>
                <mxCell id="PfdLQCuPAp_lfZB6UdkM-1" parent="PfdLQCuPAp_lfZB6UdkM-0"/>
                <mxCell id="d_nJ9ZDx_cxKSD-w6mmQ-29" value="" style="rounded=0;whiteSpace=wrap;html=1;fontSize=6;fillColor=none;" vertex="1" parent="PfdLQCuPAp_lfZB6UdkM-1">
                    <mxGeometry x="280" y="395" width="120" height="85" as="geometry"/>
                </mxCell>
                <mxCell id="d_nJ9ZDx_cxKSD-w6mmQ-26" value="" style="rounded=0;whiteSpace=wrap;html=1;fontSize=6;fillColor=none;" vertex="1" parent="PfdLQCuPAp_lfZB6UdkM-1">
                    <mxGeometry x="50" y="395" width="120" height="85" as="geometry"/>
                </mxCell>
                <mxCell id="PfdLQCuPAp_lfZB6UdkM-2" value="&lt;pre style=&quot;box-sizing: border-box ; font-size: 13px ; margin-top: 0px ; margin-bottom: 1em ; overflow: auto ; background: rgb(247 , 249 , 250) ; padding: 10px 15px ; color: rgb(38 , 50 , 56) ; line-height: 1.6 ; border-radius: 3px ; font-style: normal ; font-weight: 400 ; letter-spacing: normal ; text-indent: 0px ; text-transform: none ; word-spacing: 0px&quot;&gt;[,[1,6],[2,8],[7,12],[10,16]]&lt;/pre&gt;" style="text;whiteSpace=wrap;html=1;" vertex="1" parent="PfdLQCuPAp_lfZB6UdkM-1">
                    <mxGeometry x="80" y="60" width="270" height="70" as="geometry"/>
                </mxCell>
                <mxCell id="d_nJ9ZDx_cxKSD-w6mmQ-0" value="1" style="endArrow=none;html=1;strokeWidth=4;fillColor=#dae8fc;strokeColor=#3414FF;" edge="1" parent="PfdLQCuPAp_lfZB6UdkM-1">
                    <mxGeometry x="-1" y="10" width="50" height="50" relative="1" as="geometry">
                        <mxPoint x="80" y="280" as="sourcePoint"/>
                        <mxPoint x="160" y="280" as="targetPoint"/>
                        <mxPoint as="offset"/>
                    </mxGeometry>
                </mxCell>
                <mxCell id="d_nJ9ZDx_cxKSD-w6mmQ-5" value="6" style="edgeLabel;html=1;align=center;verticalAlign=middle;resizable=0;points=[];" vertex="1" connectable="0" parent="d_nJ9ZDx_cxKSD-w6mmQ-0">
                    <mxGeometry x="0.6601" y="1" relative="1" as="geometry">
                        <mxPoint x="14" y="-9" as="offset"/>
                    </mxGeometry>
                </mxCell>
                <mxCell id="d_nJ9ZDx_cxKSD-w6mmQ-3" value="2" style="endArrow=none;html=1;strokeWidth=4;fillColor=#dae8fc;strokeColor=#3414FF;" edge="1" parent="PfdLQCuPAp_lfZB6UdkM-1">
                    <mxGeometry x="-1" y="10" width="50" height="50" relative="1" as="geometry">
                        <mxPoint x="120" y="311" as="sourcePoint"/>
                        <mxPoint x="200" y="311" as="targetPoint"/>
                        <mxPoint as="offset"/>
                    </mxGeometry>
                </mxCell>
                <mxCell id="d_nJ9ZDx_cxKSD-w6mmQ-4" value="8" style="edgeLabel;html=1;align=center;verticalAlign=middle;resizable=0;points=[];" vertex="1" connectable="0" parent="d_nJ9ZDx_cxKSD-w6mmQ-3">
                    <mxGeometry x="0.3351" y="2" relative="1" as="geometry">
                        <mxPoint x="27" y="-8" as="offset"/>
                    </mxGeometry>
                </mxCell>
                <mxCell id="d_nJ9ZDx_cxKSD-w6mmQ-6" value="7" style="endArrow=none;html=1;strokeWidth=4;fillColor=#dae8fc;strokeColor=#3414FF;" edge="1" parent="PfdLQCuPAp_lfZB6UdkM-1">
                    <mxGeometry x="-1" y="10" width="50" height="50" relative="1" as="geometry">
                        <mxPoint x="175" y="280" as="sourcePoint"/>
                        <mxPoint x="290" y="280" as="targetPoint"/>
                        <mxPoint as="offset"/>
                    </mxGeometry>
                </mxCell>
                <mxCell id="d_nJ9ZDx_cxKSD-w6mmQ-7" value="12" style="edgeLabel;html=1;align=center;verticalAlign=middle;resizable=0;points=[];" vertex="1" connectable="0" parent="d_nJ9ZDx_cxKSD-w6mmQ-6">
                    <mxGeometry x="0.6601" y="1" relative="1" as="geometry">
                        <mxPoint x="14" y="-9" as="offset"/>
                    </mxGeometry>
                </mxCell>
                <mxCell id="d_nJ9ZDx_cxKSD-w6mmQ-8" value="10" style="endArrow=none;html=1;strokeWidth=4;fillColor=#dae8fc;strokeColor=#3414FF;" edge="1" parent="PfdLQCuPAp_lfZB6UdkM-1">
                    <mxGeometry x="-1" y="10" width="50" height="50" relative="1" as="geometry">
                        <mxPoint x="260" y="309" as="sourcePoint"/>
                        <mxPoint x="360" y="309" as="targetPoint"/>
                        <mxPoint as="offset"/>
                    </mxGeometry>
                </mxCell>
                <mxCell id="d_nJ9ZDx_cxKSD-w6mmQ-9" value="16" style="edgeLabel;html=1;align=center;verticalAlign=middle;resizable=0;points=[];" vertex="1" connectable="0" parent="d_nJ9ZDx_cxKSD-w6mmQ-8">
                    <mxGeometry x="0.6601" y="1" relative="1" as="geometry">
                        <mxPoint x="14" y="-9" as="offset"/>
                    </mxGeometry>
                </mxCell>
                <mxCell id="d_nJ9ZDx_cxKSD-w6mmQ-10" value="1" style="endArrow=none;html=1;strokeWidth=4;fillColor=#dae8fc;strokeColor=#3414FF;" edge="1" parent="PfdLQCuPAp_lfZB6UdkM-1">
                    <mxGeometry x="-1" y="10" width="50" height="50" relative="1" as="geometry">
                        <mxPoint x="60" y="460" as="sourcePoint"/>
                        <mxPoint x="140" y="460" as="targetPoint"/>
                        <mxPoint as="offset"/>
                    </mxGeometry>
                </mxCell>
                <mxCell id="d_nJ9ZDx_cxKSD-w6mmQ-11" value="6" style="edgeLabel;html=1;align=center;verticalAlign=middle;resizable=0;points=[];" vertex="1" connectable="0" parent="d_nJ9ZDx_cxKSD-w6mmQ-10">
                    <mxGeometry x="0.6601" y="1" relative="1" as="geometry">
                        <mxPoint x="14" y="-9" as="offset"/>
                    </mxGeometry>
                </mxCell>
                <mxCell id="d_nJ9ZDx_cxKSD-w6mmQ-12" value="2" style="endArrow=none;html=1;strokeWidth=4;fillColor=#dae8fc;strokeColor=#3414FF;" edge="1" parent="PfdLQCuPAp_lfZB6UdkM-1">
                    <mxGeometry x="-1" y="10" width="50" height="50" relative="1" as="geometry">
                        <mxPoint x="80" y="420" as="sourcePoint"/>
                        <mxPoint x="160" y="420" as="targetPoint"/>
                        <mxPoint as="offset"/>
                    </mxGeometry>
                </mxCell>
                <mxCell id="d_nJ9ZDx_cxKSD-w6mmQ-13" value="8" style="edgeLabel;html=1;align=center;verticalAlign=middle;resizable=0;points=[];" vertex="1" connectable="0" parent="d_nJ9ZDx_cxKSD-w6mmQ-12">
                    <mxGeometry x="0.3351" y="2" relative="1" as="geometry">
                        <mxPoint x="27" y="-8" as="offset"/>
                    </mxGeometry>
                </mxCell>
                <mxCell id="d_nJ9ZDx_cxKSD-w6mmQ-14" value="3" style="endArrow=none;html=1;strokeWidth=4;fillColor=#dae8fc;strokeColor=#3414FF;" edge="1" parent="PfdLQCuPAp_lfZB6UdkM-1">
                    <mxGeometry x="-1" y="10" width="50" height="50" relative="1" as="geometry">
                        <mxPoint x="110" y="383" as="sourcePoint"/>
                        <mxPoint x="245" y="383" as="targetPoint"/>
                        <mxPoint as="offset"/>
                    </mxGeometry>
                </mxCell>
                <mxCell id="d_nJ9ZDx_cxKSD-w6mmQ-15" value="12" style="edgeLabel;html=1;align=center;verticalAlign=middle;resizable=0;points=[];" vertex="1" connectable="0" parent="d_nJ9ZDx_cxKSD-w6mmQ-14">
                    <mxGeometry x="0.6601" y="1" relative="1" as="geometry">
                        <mxPoint x="14" y="-9" as="offset"/>
                    </mxGeometry>
                </mxCell>
                <mxCell id="d_nJ9ZDx_cxKSD-w6mmQ-18" value="1" style="endArrow=none;html=1;strokeWidth=4;fillColor=#dae8fc;strokeColor=#3414FF;" edge="1" parent="PfdLQCuPAp_lfZB6UdkM-1">
                    <mxGeometry x="-1" y="10" width="50" height="50" relative="1" as="geometry">
                        <mxPoint x="290" y="467" as="sourcePoint"/>
                        <mxPoint x="370" y="467" as="targetPoint"/>
                        <mxPoint as="offset"/>
                    </mxGeometry>
                </mxCell>
                <mxCell id="d_nJ9ZDx_cxKSD-w6mmQ-19" value="6" style="edgeLabel;html=1;align=center;verticalAlign=middle;resizable=0;points=[];" vertex="1" connectable="0" parent="d_nJ9ZDx_cxKSD-w6mmQ-18">
                    <mxGeometry x="0.6601" y="1" relative="1" as="geometry">
                        <mxPoint x="14" y="-9" as="offset"/>
                    </mxGeometry>
                </mxCell>
                <mxCell id="d_nJ9ZDx_cxKSD-w6mmQ-20" value="2" style="endArrow=none;html=1;strokeWidth=4;fillColor=#dae8fc;strokeColor=#3414FF;" edge="1" parent="PfdLQCuPAp_lfZB6UdkM-1">
                    <mxGeometry x="-1" y="10" width="50" height="50" relative="1" as="geometry">
                        <mxPoint x="310" y="427" as="sourcePoint"/>
                        <mxPoint x="390" y="427" as="targetPoint"/>
                        <mxPoint as="offset"/>
                    </mxGeometry>
                </mxCell>
                <mxCell id="d_nJ9ZDx_cxKSD-w6mmQ-21" value="8" style="edgeLabel;html=1;align=center;verticalAlign=middle;resizable=0;points=[];" vertex="1" connectable="0" parent="d_nJ9ZDx_cxKSD-w6mmQ-20">
                    <mxGeometry x="0.3351" y="2" relative="1" as="geometry">
                        <mxPoint x="27" y="-8" as="offset"/>
                    </mxGeometry>
                </mxCell>
                <mxCell id="d_nJ9ZDx_cxKSD-w6mmQ-22" value="3" style="endArrow=none;html=1;strokeWidth=4;fillColor=#dae8fc;strokeColor=#3414FF;" edge="1" parent="PfdLQCuPAp_lfZB6UdkM-1">
                    <mxGeometry x="-1" y="10" width="50" height="50" relative="1" as="geometry">
                        <mxPoint x="340" y="390" as="sourcePoint"/>
                        <mxPoint x="380" y="390" as="targetPoint"/>
                        <mxPoint as="offset"/>
                    </mxGeometry>
                </mxCell>
                <mxCell id="d_nJ9ZDx_cxKSD-w6mmQ-23" value="4" style="edgeLabel;html=1;align=center;verticalAlign=middle;resizable=0;points=[];" vertex="1" connectable="0" parent="d_nJ9ZDx_cxKSD-w6mmQ-22">
                    <mxGeometry x="0.6601" y="1" relative="1" as="geometry">
                        <mxPoint x="14" y="-9" as="offset"/>
                    </mxGeometry>
                </mxCell>
                <mxCell id="d_nJ9ZDx_cxKSD-w6mmQ-24" value="PreviousEnd" style="text;html=1;strokeColor=none;fillColor=none;align=center;verticalAlign=middle;whiteSpace=wrap;rounded=0;fontSize=6;" vertex="1" parent="PfdLQCuPAp_lfZB6UdkM-1">
                    <mxGeometry x="110" y="450" width="60" height="30" as="geometry"/>
                </mxCell>
                <mxCell id="d_nJ9ZDx_cxKSD-w6mmQ-25" value="CurrentStart" style="text;html=1;strokeColor=none;fillColor=none;align=center;verticalAlign=middle;whiteSpace=wrap;rounded=0;fontSize=6;" vertex="1" parent="PfdLQCuPAp_lfZB6UdkM-1">
                    <mxGeometry x="60" y="410" width="60" height="30" as="geometry"/>
                </mxCell>
                <mxCell id="d_nJ9ZDx_cxKSD-w6mmQ-27" value="" style="ellipse;whiteSpace=wrap;html=1;aspect=fixed;fontSize=6;fillColor=none;" vertex="1" parent="PfdLQCuPAp_lfZB6UdkM-1">
                    <mxGeometry x="125" y="440" width="30" height="30" as="geometry"/>
                </mxCell>
                <mxCell id="d_nJ9ZDx_cxKSD-w6mmQ-28" value="Overlap detected between 2 intervals ; no extra arrow needed ; 6 is the place where single arrow bursts both beloons&amp;nbsp;" style="text;html=1;strokeColor=#b85450;fillColor=#f8cecc;align=center;verticalAlign=middle;whiteSpace=wrap;rounded=0;fontSize=6;" vertex="1" parent="PfdLQCuPAp_lfZB6UdkM-1">
                    <mxGeometry x="70" y="500" width="120" height="30" as="geometry"/>
                </mxCell>
                <mxCell id="d_nJ9ZDx_cxKSD-w6mmQ-30" value="" style="ellipse;whiteSpace=wrap;html=1;aspect=fixed;fontSize=6;fillColor=none;" vertex="1" parent="PfdLQCuPAp_lfZB6UdkM-1">
                    <mxGeometry x="360" y="450" width="30" height="30" as="geometry"/>
                </mxCell>
                <mxCell id="d_nJ9ZDx_cxKSD-w6mmQ-31" value="CurrentStart" style="text;html=1;strokeColor=none;fillColor=none;align=center;verticalAlign=middle;whiteSpace=wrap;rounded=0;fontSize=6;" vertex="1" parent="PfdLQCuPAp_lfZB6UdkM-1">
                    <mxGeometry x="280" y="420" width="60" height="30" as="geometry"/>
                </mxCell>
                <mxCell id="d_nJ9ZDx_cxKSD-w6mmQ-32" value="Previous End" style="text;html=1;strokeColor=none;fillColor=none;align=center;verticalAlign=middle;whiteSpace=wrap;rounded=0;fontSize=6;" vertex="1" parent="PfdLQCuPAp_lfZB6UdkM-1">
                    <mxGeometry x="340" y="460" width="60" height="30" as="geometry"/>
                </mxCell>
                <mxCell id="d_nJ9ZDx_cxKSD-w6mmQ-33" value="" style="rounded=0;whiteSpace=wrap;html=1;fontSize=6;fillColor=none;" vertex="1" parent="PfdLQCuPAp_lfZB6UdkM-1">
                    <mxGeometry x="294" y="582" width="120" height="85" as="geometry"/>
                </mxCell>
                <mxCell id="d_nJ9ZDx_cxKSD-w6mmQ-34" value="" style="rounded=0;whiteSpace=wrap;html=1;fontSize=6;fillColor=none;" vertex="1" parent="PfdLQCuPAp_lfZB6UdkM-1">
                    <mxGeometry x="64" y="582" width="120" height="85" as="geometry"/>
                </mxCell>
                <mxCell id="d_nJ9ZDx_cxKSD-w6mmQ-35" value="2" style="endArrow=none;html=1;strokeWidth=4;fillColor=#dae8fc;strokeColor=#3414FF;" edge="1" parent="PfdLQCuPAp_lfZB6UdkM-1">
                    <mxGeometry x="-1" y="10" width="50" height="50" relative="1" as="geometry">
                        <mxPoint x="74" y="647" as="sourcePoint"/>
                        <mxPoint x="154" y="647" as="targetPoint"/>
                        <mxPoint as="offset"/>
                    </mxGeometry>
                </mxCell>
                <mxCell id="d_nJ9ZDx_cxKSD-w6mmQ-36" value="8" style="edgeLabel;html=1;align=center;verticalAlign=middle;resizable=0;points=[];" vertex="1" connectable="0" parent="d_nJ9ZDx_cxKSD-w6mmQ-35">
                    <mxGeometry x="0.6601" y="1" relative="1" as="geometry">
                        <mxPoint x="14" y="-9" as="offset"/>
                    </mxGeometry>
                </mxCell>
                <mxCell id="d_nJ9ZDx_cxKSD-w6mmQ-39" value="3" style="endArrow=none;html=1;strokeWidth=4;fillColor=#dae8fc;strokeColor=#3414FF;" edge="1" parent="PfdLQCuPAp_lfZB6UdkM-1">
                    <mxGeometry x="-1" y="10" width="50" height="50" relative="1" as="geometry">
                        <mxPoint x="100" y="607" as="sourcePoint"/>
                        <mxPoint x="235" y="607" as="targetPoint"/>
                        <mxPoint as="offset"/>
                    </mxGeometry>
                </mxCell>
                <mxCell id="d_nJ9ZDx_cxKSD-w6mmQ-40" value="12" style="edgeLabel;html=1;align=center;verticalAlign=middle;resizable=0;points=[];" vertex="1" connectable="0" parent="d_nJ9ZDx_cxKSD-w6mmQ-39">
                    <mxGeometry x="0.6601" y="1" relative="1" as="geometry">
                        <mxPoint x="14" y="-9" as="offset"/>
                    </mxGeometry>
                </mxCell>
                <mxCell id="d_nJ9ZDx_cxKSD-w6mmQ-41" value="2" style="endArrow=none;html=1;strokeWidth=4;fillColor=#dae8fc;strokeColor=#3414FF;" edge="1" parent="PfdLQCuPAp_lfZB6UdkM-1">
                    <mxGeometry x="-1" y="10" width="50" height="50" relative="1" as="geometry">
                        <mxPoint x="304" y="654" as="sourcePoint"/>
                        <mxPoint x="384" y="654" as="targetPoint"/>
                        <mxPoint as="offset"/>
                    </mxGeometry>
                </mxCell>
                <mxCell id="d_nJ9ZDx_cxKSD-w6mmQ-42" value="8" style="edgeLabel;html=1;align=center;verticalAlign=middle;resizable=0;points=[];" vertex="1" connectable="0" parent="d_nJ9ZDx_cxKSD-w6mmQ-41">
                    <mxGeometry x="0.6601" y="1" relative="1" as="geometry">
                        <mxPoint x="14" y="-9" as="offset"/>
                    </mxGeometry>
                </mxCell>
                <mxCell id="d_nJ9ZDx_cxKSD-w6mmQ-56" value="6" style="edgeLabel;html=1;align=center;verticalAlign=middle;resizable=0;points=[];fontSize=14;" vertex="1" connectable="0" parent="d_nJ9ZDx_cxKSD-w6mmQ-41">
                    <mxGeometry x="0.437" y="3" relative="1" as="geometry">
                        <mxPoint y="-11" as="offset"/>
                    </mxGeometry>
                </mxCell>
                <mxCell id="d_nJ9ZDx_cxKSD-w6mmQ-45" value="3" style="endArrow=none;html=1;strokeWidth=4;fillColor=#dae8fc;strokeColor=#3414FF;" edge="1" parent="PfdLQCuPAp_lfZB6UdkM-1">
                    <mxGeometry x="-1" y="10" width="50" height="50" relative="1" as="geometry">
                        <mxPoint x="323" y="613" as="sourcePoint"/>
                        <mxPoint x="363" y="613" as="targetPoint"/>
                        <mxPoint as="offset"/>
                    </mxGeometry>
                </mxCell>
                <mxCell id="d_nJ9ZDx_cxKSD-w6mmQ-46" value="4" style="edgeLabel;html=1;align=center;verticalAlign=middle;resizable=0;points=[];" vertex="1" connectable="0" parent="d_nJ9ZDx_cxKSD-w6mmQ-45">
                    <mxGeometry x="0.6601" y="1" relative="1" as="geometry">
                        <mxPoint x="14" y="-9" as="offset"/>
                    </mxGeometry>
                </mxCell>
                <mxCell id="d_nJ9ZDx_cxKSD-w6mmQ-47" value="PreviousEnd" style="text;html=1;strokeColor=none;fillColor=none;align=center;verticalAlign=middle;whiteSpace=wrap;rounded=0;fontSize=6;" vertex="1" parent="PfdLQCuPAp_lfZB6UdkM-1">
                    <mxGeometry x="101" y="637" width="60" height="30" as="geometry"/>
                </mxCell>
                <mxCell id="d_nJ9ZDx_cxKSD-w6mmQ-48" value="CurrentStart" style="text;html=1;strokeColor=none;fillColor=none;align=center;verticalAlign=middle;whiteSpace=wrap;rounded=0;fontSize=6;" vertex="1" parent="PfdLQCuPAp_lfZB6UdkM-1">
                    <mxGeometry x="74" y="597" width="60" height="30" as="geometry"/>
                </mxCell>
                <mxCell id="d_nJ9ZDx_cxKSD-w6mmQ-49" value="6" style="ellipse;whiteSpace=wrap;html=1;aspect=fixed;fontSize=14;fillColor=none;" vertex="1" parent="PfdLQCuPAp_lfZB6UdkM-1">
                    <mxGeometry x="115" y="627" width="30" height="30" as="geometry"/>
                </mxCell>
                <mxCell id="d_nJ9ZDx_cxKSD-w6mmQ-50" value="Overlap detected between 2 intervals ; no extra arrow needed ; 6 is the place where single arrow bursts both beloons&amp;nbsp;" style="text;html=1;strokeColor=#b85450;fillColor=#f8cecc;align=center;verticalAlign=middle;whiteSpace=wrap;rounded=0;fontSize=6;" vertex="1" parent="PfdLQCuPAp_lfZB6UdkM-1">
                    <mxGeometry x="174" y="687" width="120" height="30" as="geometry"/>
                </mxCell>
                <mxCell id="d_nJ9ZDx_cxKSD-w6mmQ-51" value="" style="ellipse;whiteSpace=wrap;html=1;aspect=fixed;fontSize=6;fillColor=none;" vertex="1" parent="PfdLQCuPAp_lfZB6UdkM-1">
                    <mxGeometry x="374" y="606" width="30" height="30" as="geometry"/>
                </mxCell>
                <mxCell id="d_nJ9ZDx_cxKSD-w6mmQ-52" value="CurrentStart" style="text;html=1;strokeColor=none;fillColor=none;align=center;verticalAlign=middle;whiteSpace=wrap;rounded=0;fontSize=6;" vertex="1" parent="PfdLQCuPAp_lfZB6UdkM-1">
                    <mxGeometry x="294" y="607" width="60" height="30" as="geometry"/>
                </mxCell>
                <mxCell id="d_nJ9ZDx_cxKSD-w6mmQ-53" value="Previous End" style="text;html=1;strokeColor=none;fillColor=none;align=center;verticalAlign=middle;whiteSpace=wrap;rounded=0;fontSize=6;" vertex="1" parent="PfdLQCuPAp_lfZB6UdkM-1">
                    <mxGeometry x="332" y="645" width="60" height="30" as="geometry"/>
                </mxCell>
            </root>
        </mxGraphModel>
    </diagram>
    <diagram id="HO_dscVUC018QJ8nAWdL" name="Page-5">
        <mxGraphModel dx="698" dy="314" grid="1" gridSize="10" guides="1" tooltips="1" connect="1" arrows="1" fold="1" page="1" pageScale="1" pageWidth="827" pageHeight="1169" math="0" shadow="0">
            <root>
                <mxCell id="6AYBO_zDuqZFUjQDReVn-0"/>
                <mxCell id="6AYBO_zDuqZFUjQDReVn-1" parent="6AYBO_zDuqZFUjQDReVn-0"/>
                <mxCell id="6AYBO_zDuqZFUjQDReVn-2" value="0" style="text;html=1;strokeColor=default;fillColor=none;align=center;verticalAlign=middle;whiteSpace=wrap;rounded=0;fontSize=14;" vertex="1" parent="6AYBO_zDuqZFUjQDReVn-1">
                    <mxGeometry x="160" y="80" width="40" height="40" as="geometry"/>
                </mxCell>
                <mxCell id="6AYBO_zDuqZFUjQDReVn-3" value="1" style="text;html=1;strokeColor=default;fillColor=none;align=center;verticalAlign=middle;whiteSpace=wrap;rounded=0;fontSize=14;" vertex="1" parent="6AYBO_zDuqZFUjQDReVn-1">
                    <mxGeometry x="200" y="80" width="40" height="40" as="geometry"/>
                </mxCell>
                <mxCell id="6AYBO_zDuqZFUjQDReVn-4" value="2" style="text;html=1;strokeColor=default;fillColor=#fff2cc;align=center;verticalAlign=middle;whiteSpace=wrap;rounded=0;fontSize=14;" vertex="1" parent="6AYBO_zDuqZFUjQDReVn-1">
                    <mxGeometry x="240" y="80" width="40" height="40" as="geometry"/>
                </mxCell>
                <mxCell id="6AYBO_zDuqZFUjQDReVn-5" value="3" style="text;html=1;strokeColor=default;fillColor=none;align=center;verticalAlign=middle;whiteSpace=wrap;rounded=0;fontSize=14;" vertex="1" parent="6AYBO_zDuqZFUjQDReVn-1">
                    <mxGeometry x="280" y="80" width="40" height="40" as="geometry"/>
                </mxCell>
                <mxCell id="6AYBO_zDuqZFUjQDReVn-6" value="4" style="text;html=1;strokeColor=default;fillColor=none;align=center;verticalAlign=middle;whiteSpace=wrap;rounded=0;fontSize=14;" vertex="1" parent="6AYBO_zDuqZFUjQDReVn-1">
                    <mxGeometry x="320" y="80" width="40" height="40" as="geometry"/>
                </mxCell>
                <mxCell id="6AYBO_zDuqZFUjQDReVn-7" value="0" style="text;html=1;strokeColor=default;fillColor=none;align=center;verticalAlign=middle;whiteSpace=wrap;rounded=0;fontSize=14;" vertex="1" parent="6AYBO_zDuqZFUjQDReVn-1">
                    <mxGeometry x="130" y="200" width="40" height="40" as="geometry"/>
                </mxCell>
                <mxCell id="6AYBO_zDuqZFUjQDReVn-8" value="1" style="text;html=1;strokeColor=default;fillColor=none;align=center;verticalAlign=middle;whiteSpace=wrap;rounded=0;fontSize=14;" vertex="1" parent="6AYBO_zDuqZFUjQDReVn-1">
                    <mxGeometry x="170" y="200" width="40" height="40" as="geometry"/>
                </mxCell>
                <mxCell id="6AYBO_zDuqZFUjQDReVn-9" value="2" style="text;html=1;strokeColor=#d6b656;fillColor=#fff2cc;align=center;verticalAlign=middle;whiteSpace=wrap;rounded=0;fontSize=14;" vertex="1" parent="6AYBO_zDuqZFUjQDReVn-1">
                    <mxGeometry x="210" y="200" width="40" height="40" as="geometry"/>
                </mxCell>
                <mxCell id="6AYBO_zDuqZFUjQDReVn-10" value="3" style="text;html=1;strokeColor=#d6b656;fillColor=#fff2cc;align=center;verticalAlign=middle;whiteSpace=wrap;rounded=0;fontSize=14;" vertex="1" parent="6AYBO_zDuqZFUjQDReVn-1">
                    <mxGeometry x="250" y="200" width="40" height="40" as="geometry"/>
                </mxCell>
                <mxCell id="6AYBO_zDuqZFUjQDReVn-11" value="4" style="text;html=1;strokeColor=default;fillColor=none;align=center;verticalAlign=middle;whiteSpace=wrap;rounded=0;fontSize=14;" vertex="1" parent="6AYBO_zDuqZFUjQDReVn-1">
                    <mxGeometry x="290" y="200" width="40" height="40" as="geometry"/>
                </mxCell>
                <mxCell id="6AYBO_zDuqZFUjQDReVn-12" value="5" style="text;html=1;strokeColor=default;fillColor=none;align=center;verticalAlign=middle;whiteSpace=wrap;rounded=0;fontSize=14;" vertex="1" parent="6AYBO_zDuqZFUjQDReVn-1">
                    <mxGeometry x="330" y="200" width="40" height="40" as="geometry"/>
                </mxCell>
                <mxCell id="6AYBO_zDuqZFUjQDReVn-13" value="Median" style="text;html=1;strokeColor=none;fillColor=none;align=center;verticalAlign=middle;whiteSpace=wrap;rounded=0;fontSize=14;" vertex="1" parent="6AYBO_zDuqZFUjQDReVn-1">
                    <mxGeometry x="240" y="38" width="40" height="30" as="geometry"/>
                </mxCell>
                <mxCell id="6AYBO_zDuqZFUjQDReVn-14" value="Median" style="text;html=1;strokeColor=none;fillColor=none;align=center;verticalAlign=middle;whiteSpace=wrap;rounded=0;fontSize=14;" vertex="1" parent="6AYBO_zDuqZFUjQDReVn-1">
                    <mxGeometry x="230" y="170" width="40" height="30" as="geometry"/>
                </mxCell>
                <mxCell id="6AYBO_zDuqZFUjQDReVn-20" value="Max Heap" style="rounded=0;whiteSpace=wrap;html=1;fontSize=14;strokeColor=default;fillColor=none;" vertex="1" parent="6AYBO_zDuqZFUjQDReVn-1">
                    <mxGeometry x="130" y="350" width="120" height="60" as="geometry"/>
                </mxCell>
                <mxCell id="6AYBO_zDuqZFUjQDReVn-21" value="2" style="text;html=1;strokeColor=#d6b656;fillColor=#fff2cc;align=center;verticalAlign=middle;whiteSpace=wrap;rounded=0;fontSize=14;" vertex="1" parent="6AYBO_zDuqZFUjQDReVn-1">
                    <mxGeometry x="130" y="310" width="40" height="40" as="geometry"/>
                </mxCell>
                <mxCell id="6AYBO_zDuqZFUjQDReVn-22" value="0" style="text;html=1;strokeColor=default;fillColor=none;align=center;verticalAlign=middle;whiteSpace=wrap;rounded=0;fontSize=14;" vertex="1" parent="6AYBO_zDuqZFUjQDReVn-1">
                    <mxGeometry x="170" y="310" width="40" height="40" as="geometry"/>
                </mxCell>
                <mxCell id="6AYBO_zDuqZFUjQDReVn-23" value="1" style="text;html=1;strokeColor=default;fillColor=none;align=center;verticalAlign=middle;whiteSpace=wrap;rounded=0;fontSize=14;" vertex="1" parent="6AYBO_zDuqZFUjQDReVn-1">
                    <mxGeometry x="210" y="310" width="40" height="40" as="geometry"/>
                </mxCell>
                <mxCell id="6AYBO_zDuqZFUjQDReVn-24" value="Min Heap" style="rounded=0;whiteSpace=wrap;html=1;fontSize=14;strokeColor=default;fillColor=none;" vertex="1" parent="6AYBO_zDuqZFUjQDReVn-1">
                    <mxGeometry x="310" y="350" width="120" height="60" as="geometry"/>
                </mxCell>
                <mxCell id="6AYBO_zDuqZFUjQDReVn-25" value="3" style="text;html=1;strokeColor=#d6b656;fillColor=#fff2cc;align=center;verticalAlign=middle;whiteSpace=wrap;rounded=0;fontSize=14;" vertex="1" parent="6AYBO_zDuqZFUjQDReVn-1">
                    <mxGeometry x="310" y="310" width="40" height="40" as="geometry"/>
                </mxCell>
                <mxCell id="6AYBO_zDuqZFUjQDReVn-26" value="5" style="text;html=1;strokeColor=default;fillColor=none;align=center;verticalAlign=middle;whiteSpace=wrap;rounded=0;fontSize=14;" vertex="1" parent="6AYBO_zDuqZFUjQDReVn-1">
                    <mxGeometry x="350" y="310" width="40" height="40" as="geometry"/>
                </mxCell>
                <mxCell id="6AYBO_zDuqZFUjQDReVn-27" value="4" style="text;html=1;strokeColor=default;fillColor=none;align=center;verticalAlign=middle;whiteSpace=wrap;rounded=0;fontSize=14;" vertex="1" parent="6AYBO_zDuqZFUjQDReVn-1">
                    <mxGeometry x="390" y="310" width="40" height="40" as="geometry"/>
                </mxCell>
                <mxCell id="6AYBO_zDuqZFUjQDReVn-28" value="Represents the elements &lt;br&gt;on the left of teh median" style="text;html=1;strokeColor=#b85450;fillColor=#f8cecc;align=center;verticalAlign=middle;whiteSpace=wrap;rounded=0;fontSize=14;" vertex="1" parent="6AYBO_zDuqZFUjQDReVn-1">
                    <mxGeometry x="30" y="430" width="220" height="30" as="geometry"/>
                </mxCell>
                <mxCell id="6AYBO_zDuqZFUjQDReVn-29" value="in the heap elements are not sorted" style="text;html=1;strokeColor=#b85450;fillColor=#f8cecc;align=center;verticalAlign=middle;whiteSpace=wrap;rounded=0;fontSize=14;" vertex="1" parent="6AYBO_zDuqZFUjQDReVn-1">
                    <mxGeometry x="30" y="475" width="220" height="30" as="geometry"/>
                </mxCell>
                <mxCell id="6AYBO_zDuqZFUjQDReVn-30" value="heap can tell the &lt;b&gt;biggest&lt;/b&gt; element in O(1)" style="text;html=1;strokeColor=#b85450;fillColor=#f8cecc;align=center;verticalAlign=middle;whiteSpace=wrap;rounded=0;fontSize=14;" vertex="1" parent="6AYBO_zDuqZFUjQDReVn-1">
                    <mxGeometry x="40" y="520" width="220" height="30" as="geometry"/>
                </mxCell>
                <mxCell id="6AYBO_zDuqZFUjQDReVn-31" value="all the elements are smaller than the contents of MinHeap" style="text;html=1;strokeColor=#b85450;fillColor=#f8cecc;align=center;verticalAlign=middle;whiteSpace=wrap;rounded=0;fontSize=14;fontStyle=1" vertex="1" parent="6AYBO_zDuqZFUjQDReVn-1">
                    <mxGeometry x="40" y="569.5" width="220" height="30" as="geometry"/>
                </mxCell>
                <mxCell id="6AYBO_zDuqZFUjQDReVn-32" value="Represents the elements &lt;br&gt;on the right of teh median" style="text;html=1;strokeColor=#b85450;fillColor=#f8cecc;align=center;verticalAlign=middle;whiteSpace=wrap;rounded=0;fontSize=14;" vertex="1" parent="6AYBO_zDuqZFUjQDReVn-1">
                    <mxGeometry x="260" y="420" width="220" height="30" as="geometry"/>
                </mxCell>
                <mxCell id="6AYBO_zDuqZFUjQDReVn-33" value="in the heap elements are not sorted" style="text;html=1;strokeColor=#b85450;fillColor=#f8cecc;align=center;verticalAlign=middle;whiteSpace=wrap;rounded=0;fontSize=14;" vertex="1" parent="6AYBO_zDuqZFUjQDReVn-1">
                    <mxGeometry x="260" y="470" width="220" height="30" as="geometry"/>
                </mxCell>
                <mxCell id="6AYBO_zDuqZFUjQDReVn-34" value="heap can tell the &lt;b&gt;smallest&lt;/b&gt; element in O(1)" style="text;html=1;strokeColor=#b85450;fillColor=#f8cecc;align=center;verticalAlign=middle;whiteSpace=wrap;rounded=0;fontSize=14;" vertex="1" parent="6AYBO_zDuqZFUjQDReVn-1">
                    <mxGeometry x="270" y="520" width="220" height="30" as="geometry"/>
                </mxCell>
                <mxCell id="6AYBO_zDuqZFUjQDReVn-35" value="all the elements are bigger than the contents of MinHeap" style="text;html=1;strokeColor=#b85450;fillColor=#f8cecc;align=center;verticalAlign=middle;whiteSpace=wrap;rounded=0;fontSize=14;fontStyle=1" vertex="1" parent="6AYBO_zDuqZFUjQDReVn-1">
                    <mxGeometry x="280" y="570" width="220" height="30" as="geometry"/>
                </mxCell>
            </root>
        </mxGraphModel>
    </diagram>
</mxfile>